<svg xmlns="http://www.w3.org/2000/svg" viewBox="0 0 87.27 67.83"><title>loved-developers</title><g id="small"><g id="Layer_15" data-name="Layer 15"><rect x="21.7" y="21.84" width="43.6" height="1.99" rx="0.77" ry="0.77" style="fill:#db1f5d"/><rect x="24.12" y="26.57" width="38.78" height="1.77" rx="0.77" ry="0.77" style="fill:#db1f5d"/><rect x="27.97" y="31.08" width="31.07" height="1.77" rx="0.77" ry="0.77" style="fill:#db1f5d"/><rect x="31.98" y="35.68" width="23.04" height="1.77" rx="0.77" ry="0.77" style="fill:#db1f5d"/><rect x="37.47" y="40.24" width="12.07" height="1.77" rx="0.77" ry="0.77" style="fill:#db1f5d"/><rect x="24.12" y="17.63" width="17.22" height="1.77" rx="0.77" ry="0.77" style="fill:#db1f5d"/><rect x="45.68" y="17.63" width="17.22" height="1.77" rx="0.77" ry="0.77" style="fill:#db1f5d"/><rect x="27.98" y="13.34" width="9.5" height="1.77" rx="0.77" ry="0.77" style="fill:#db1f5d"/><rect x="49.54" y="13.34" width="9.5" height="1.77" rx="0.77" ry="0.77" style="fill:#db1f5d"/><path d="M76.88,54.52H43.47V53.08a2.16,2.16,0,0,0,0-4.32V47.45h38v2.47A4.6,4.6,0,0,1,76.88,54.52Z" style="fill:#494f89"/><path d="M10.39,54.52a4.59,4.59,0,0,1-4.59-4.6V47.45H43.47v1.31a2.16,2.16,0,0,0,0,4.32v1.44Z" style="fill:#494f89"/><path d="M81.48,47.45v2.47a4.6,4.6,0,0,1-4.6,4.6H10.39a4.59,4.59,0,0,1-4.59-4.6V11.3a4.58,4.58,0,0,1,4.59-4.59H76.88a4.59,4.59,0,0,1,4.6,4.59Z" style="fill:none;stroke:#494f89;stroke-miterlimit:10;stroke-width:3px"/><polyline points="81.48 47.45 43.47 47.45 5.8 47.45" style="fill:none;stroke:#494f89;stroke-miterlimit:10;stroke-width:0.995615606468579px"/><line x1="34.94" y1="62.51" x2="52.07" y2="62.51" style="fill:none;stroke:#494f89;stroke-linecap:round;stroke-linejoin:round;stroke-width:3px"/><line x1="40.64" y1="58.38" x2="46.63" y2="58.38" style="fill:none;stroke:#494f89;stroke-linecap:round;stroke-linejoin:round;stroke-width:3px"/></g></g></svg>