<svg xmlns="http://www.w3.org/2000/svg" xmlns:xlink="http://www.w3.org/1999/xlink" width="4014" height="1905" viewBox="0 0 4014 1905"><defs><style>.a{fill:none;}.b{clip-path:url(#h);}.c{clip-path:url(#a);}.d{opacity:0.35;}.e{clip-path:url(#c);}.f{fill:#1e8dcd;}.g{clip-path:url(#d);}.h{fill:#f4ebc9;}.i{clip-path:url(#e);}.j{fill:#42448e;}.k{opacity:0.704;}.l{clip-path:url(#f);}.m{fill:#44689a;}</style><clipPath id="a"><rect class="a" width="4815.089" height="1592.125"/></clipPath><clipPath id="c"><rect class="a" width="2266.271" height="1098.776"/></clipPath><clipPath id="d"><rect class="a" width="4808.28" height="824.54"/></clipPath><clipPath id="e"><rect class="a" width="4834.917" height="1183.798"/></clipPath><clipPath id="f"><rect class="a" width="3959.865" height="1528.107"/></clipPath><clipPath id="h"><rect width="4014" height="1905"/></clipPath></defs><g id="g" class="b"><g class="c" transform="translate(-74 -640)"><g class="c"><g class="d" transform="translate(17.024 219.48)"><g class="e" transform="translate(0)"><path class="f" d="M2056.123,366.2,4257.7-715.915,2011.86-725.58Z" transform="translate(-2001.645 731.714)"/></g></g><g class="d" transform="translate(-10.215 163.857)"><g class="g"><path class="h" d="M-152.8-369.508,4583.969,28.47l-146.4-817.53-4641.441,36.3Z" transform="translate(214.084 795.194)"/></g></g><g class="d" transform="translate(-9.613 -6.134)"><g class="i"><path class="j" d="M4586.608-431.906-118.924,193.728-227.88-718.436,1290.693-983.06Z" transform="translate(238.095 989.194)"/></g></g><g class="k" transform="translate(790.531 64.894)"><g class="l"><path class="m" d="M3777.557,619.1-161.88-767.987l3806.045-134Z" transform="translate(172.095 908.132)"/></g></g></g></g></g></svg>