<svg xmlns="http://www.w3.org/2000/svg" xmlns:xlink="http://www.w3.org/1999/xlink" width="3318" height="2352" viewBox="0 0 3318 2352"><defs><style>.a{clip-path:url(#b);}.b,.c,.f,.g,.k{fill:none;}.b,.c,.d,.e{opacity:0.097;}.c,.d,.g{stroke:#888be0;}.c,.g{stroke-linecap:round;stroke-width:6px;}.d,.h{fill:#707070;}.i,.j{stroke:none;}.j{fill:#888be0;}</style><clipPath id="b"><rect width="3318" height="2352"/></clipPath></defs><g id="a" class="a"><g class="b" transform="translate(62.712 73.423) rotate(-19)"><path class="i" d="M23.681,7.4a5,5,0,0,1,8.638,0L51.614,40.481A5,5,0,0,1,47.295,48H8.705a5,5,0,0,1-4.319-7.519Z"/><path class="j" d="M 28.00000762939453 11.90781021118164 L 10.44622421264648 41.99999618530273 L 45.55377960205078 41.99999618530273 L 28.00000762939453 11.90781021118164 M 28.00000190734863 4.923179626464844 C 29.67709922790527 4.923179626464844 31.35420036315918 5.75006103515625 32.31890106201172 7.403823852539062 L 51.61371231079102 40.48064804077148 C 53.55812454223633 43.81392288208008 51.15376281738281 47.99999618530273 47.2948112487793 47.99999618530273 L 8.705188751220703 47.99999618530273 C 4.846225738525391 47.99999618530273 2.441875457763672 43.81392288208008 4.386287689208984 40.48064804077148 L 23.68111419677734 7.403823852539062 C 24.64580535888672 5.75006103515625 26.32290267944336 4.923179626464844 28.00000190734863 4.923179626464844 Z"/></g><g class="b" transform="translate(2571.712 73.423) rotate(-19)"><path class="i" d="M23.681,7.4a5,5,0,0,1,8.638,0L51.614,40.481A5,5,0,0,1,47.295,48H8.705a5,5,0,0,1-4.319-7.519Z"/><path class="j" d="M 28.00000762939453 11.90781021118164 L 10.44622421264648 41.99999618530273 L 45.55377960205078 41.99999618530273 L 28.00000762939453 11.90781021118164 M 28.00000190734863 4.923179626464844 C 29.67709922790527 4.923179626464844 31.35420036315918 5.75006103515625 32.31890106201172 7.403823852539062 L 51.61371231079102 40.48064804077148 C 53.55812454223633 43.81392288208008 51.15376281738281 47.99999618530273 47.2948112487793 47.99999618530273 L 8.705188751220703 47.99999618530273 C 4.846225738525391 47.99999618530273 2.441875457763672 43.81392288208008 4.386287689208984 40.48064804077148 L 23.68111419677734 7.403823852539062 C 24.64580535888672 5.75006103515625 26.32290267944336 4.923179626464844 28.00000190734863 4.923179626464844 Z"/></g><g class="b" transform="translate(303.711 552.849) rotate(38)"><path class="i" d="M23.681,7.4a5,5,0,0,1,8.638,0L51.614,40.481A5,5,0,0,1,47.295,48H8.705a5,5,0,0,1-4.319-7.519Z"/><path class="j" d="M 28.00000762939453 11.90781021118164 L 10.44622421264648 41.99999618530273 L 45.55377960205078 41.99999618530273 L 28.00000762939453 11.90781021118164 M 28.00000190734863 4.923179626464844 C 29.67709922790527 4.923179626464844 31.35420036315918 5.75006103515625 32.31890106201172 7.403823852539062 L 51.61371231079102 40.48064804077148 C 53.55812454223633 43.81392288208008 51.15376281738281 47.99999618530273 47.2948112487793 47.99999618530273 L 8.705188751220703 47.99999618530273 C 4.846225738525391 47.99999618530273 2.441875457763672 43.81392288208008 4.386287689208984 40.48064804077148 L 23.68111419677734 7.403823852539062 C 24.64580535888672 5.75006103515625 26.32290267944336 4.923179626464844 28.00000190734863 4.923179626464844 Z"/></g><g class="b" transform="translate(2812.711 552.849) rotate(38)"><path class="i" d="M23.681,7.4a5,5,0,0,1,8.638,0L51.614,40.481A5,5,0,0,1,47.295,48H8.705a5,5,0,0,1-4.319-7.519Z"/><path class="j" d="M 28.00000762939453 11.90781021118164 L 10.44622421264648 41.99999618530273 L 45.55377960205078 41.99999618530273 L 28.00000762939453 11.90781021118164 M 28.00000190734863 4.923179626464844 C 29.67709922790527 4.923179626464844 31.35420036315918 5.75006103515625 32.31890106201172 7.403823852539062 L 51.61371231079102 40.48064804077148 C 53.55812454223633 43.81392288208008 51.15376281738281 47.99999618530273 47.2948112487793 47.99999618530273 L 8.705188751220703 47.99999618530273 C 4.846225738525391 47.99999618530273 2.441875457763672 43.81392288208008 4.386287689208984 40.48064804077148 L 23.68111419677734 7.403823852539062 C 24.64580535888672 5.75006103515625 26.32290267944336 4.923179626464844 28.00000190734863 4.923179626464844 Z"/></g><g class="b" transform="translate(130 1064)"><path class="i" d="M23.681,7.4a5,5,0,0,1,8.638,0L51.614,40.481A5,5,0,0,1,47.295,48H8.705a5,5,0,0,1-4.319-7.519Z"/><path class="j" d="M 28.00000762939453 11.90781021118164 L 10.44622421264648 41.99999618530273 L 45.55377960205078 41.99999618530273 L 28.00000762939453 11.90781021118164 M 28.00000190734863 4.923179626464844 C 29.67709922790527 4.923179626464844 31.35420036315918 5.75006103515625 32.31890106201172 7.403823852539062 L 51.61371231079102 40.48064804077148 C 53.55812454223633 43.81392288208008 51.15376281738281 47.99999618530273 47.2948112487793 47.99999618530273 L 8.705188751220703 47.99999618530273 C 4.846225738525391 47.99999618530273 2.441875457763672 43.81392288208008 4.386287689208984 40.48064804077148 L 23.68111419677734 7.403823852539062 C 24.64580535888672 5.75006103515625 26.32290267944336 4.923179626464844 28.00000190734863 4.923179626464844 Z"/></g><g class="b" transform="translate(2639 1064)"><path class="i" d="M23.681,7.4a5,5,0,0,1,8.638,0L51.614,40.481A5,5,0,0,1,47.295,48H8.705a5,5,0,0,1-4.319-7.519Z"/><path class="j" d="M 28.00000762939453 11.90781021118164 L 10.44622421264648 41.99999618530273 L 45.55377960205078 41.99999618530273 L 28.00000762939453 11.90781021118164 M 28.00000190734863 4.923179626464844 C 29.67709922790527 4.923179626464844 31.35420036315918 5.75006103515625 32.31890106201172 7.403823852539062 L 51.61371231079102 40.48064804077148 C 53.55812454223633 43.81392288208008 51.15376281738281 47.99999618530273 47.2948112487793 47.99999618530273 L 8.705188751220703 47.99999618530273 C 4.846225738525391 47.99999618530273 2.441875457763672 43.81392288208008 4.386287689208984 40.48064804077148 L 23.68111419677734 7.403823852539062 C 24.64580535888672 5.75006103515625 26.32290267944336 4.923179626464844 28.00000190734863 4.923179626464844 Z"/></g><path class="c" d="M10559.058,1723.662s25.538,16.395,0,31.139,0,33.366,0,33.366" transform="translate(-10297 -1578)"/><path class="c" d="M10559.058,1723.662s25.538,16.395,0,31.139,0,33.366,0,33.366" transform="translate(-7788 -1578)"/><path class="c" d="M10559.058,1723.662s-25.538,16.395,0,31.139,0,33.367,0,33.367" transform="translate(-9959.313 4456.777) rotate(-30)"/><path class="c" d="M10552.795,1723.662s-11.447,7.349,0,13.957,0,14.956,0,14.956" transform="translate(-9582.465 4274.514) rotate(-30)"/><path class="c" d="M10552.795,1723.662s-11.447,7.349,0,13.957,0,14.956,0,14.956" transform="translate(-7073.465 4274.514) rotate(-30)"/><path class="c" d="M10552.795,1723.662s-11.447,7.349,0,13.957,0,14.956,0,14.956" transform="translate(-9945.465 4118.514) rotate(-30)"/><path class="c" d="M10552.795,1723.662s-11.447,7.349,0,13.957,0,14.956,0,14.956" transform="translate(-9745.465 4695.514) rotate(-30)"/><path class="c" d="M10552.795,1723.662s-11.447,7.349,0,13.957,0,14.956,0,14.956" transform="translate(-7236.465 4695.514) rotate(-30)"/><g class="d" transform="translate(186 438)"><circle class="i" cx="5.5" cy="5.5" r="5.5"/><circle class="k" cx="5.5" cy="5.5" r="5"/></g><g class="d" transform="translate(2695 438)"><circle class="i" cx="5.5" cy="5.5" r="5.5"/><circle class="k" cx="5.5" cy="5.5" r="5"/></g><g class="d" transform="translate(146 228)"><circle class="i" cx="5.5" cy="5.5" r="5.5"/><circle class="k" cx="5.5" cy="5.5" r="5"/></g><g class="d" transform="translate(2655 228)"><circle class="i" cx="5.5" cy="5.5" r="5.5"/><circle class="k" cx="5.5" cy="5.5" r="5"/></g><g class="d" transform="translate(396 328)"><circle class="i" cx="5.5" cy="5.5" r="5.5"/><circle class="k" cx="5.5" cy="5.5" r="5"/></g><g class="d" transform="translate(2905 328)"><circle class="i" cx="5.5" cy="5.5" r="5.5"/><circle class="k" cx="5.5" cy="5.5" r="5"/></g><g class="d" transform="translate(456 798)"><circle class="i" cx="5.5" cy="5.5" r="5.5"/><circle class="k" cx="5.5" cy="5.5" r="5"/></g><g class="d" transform="translate(2965 798)"><circle class="i" cx="5.5" cy="5.5" r="5.5"/><circle class="k" cx="5.5" cy="5.5" r="5"/></g><g class="d" transform="translate(96 898)"><circle class="i" cx="5.5" cy="5.5" r="5.5"/><circle class="k" cx="5.5" cy="5.5" r="5"/></g><path class="c" d="M10386.014,2118.646s31.675-32.894,33.786,11.866" transform="translate(-10297 -1578)"/><path class="c" d="M10386.014,2118.646s31.675-32.894,33.786,11.866" transform="translate(-7788 -1578)"/><path class="c" d="M10386.014,2118.646s31.675-32.894,33.786,11.866" transform="translate(6093.687 9614.907) rotate(-135)"/><path class="c" d="M10386.014,2118.646s31.675-32.894,33.786,11.866" transform="translate(8602.687 9614.907) rotate(-135)"/><path class="c" d="M10386.014,2118.646s31.675-32.894,33.786,11.866" transform="matrix(-0.259, 0.966, -0.966, -0.259, 5144.939, -8469.306)"/><path class="c" d="M10386.014,2118.646s31.675-32.894,33.786,11.866" transform="matrix(-0.259, 0.966, -0.966, -0.259, 7653.939, -8469.306)"/><path class="c" d="M10386.014,2118.646s31.675-32.894,33.786,11.866" transform="matrix(0.966, 0.259, -0.259, 0.966, -9086.153, -4639.273)"/><path class="c" d="M10386.014,2118.646s31.675-32.894,33.786,11.866" transform="matrix(0.966, 0.259, -0.259, 0.966, -6577.153, -4639.273)"/><g class="e" transform="translate(544.101 55.192)"><g class="f" transform="translate(404.289 1038.577) rotate(161)"><path class="i" d="M23.681,7.4a5,5,0,0,1,8.638,0L51.614,40.481A5,5,0,0,1,47.295,48H8.705a5,5,0,0,1-4.319-7.519Z"/><path class="j" d="M 28.00001525878906 11.90780258178711 L 10.44623184204102 41.9999885559082 L 45.55381011962891 41.9999885559082 L 28.00001525878906 11.90780258178711 M 28.0000171661377 4.923171997070312 C 29.67711639404297 4.923171997070312 31.35421371459961 5.750053405761719 32.31890869140625 7.403816223144531 L 51.61374282836914 40.48064041137695 C 53.55815505981445 43.81391525268555 51.15379333496094 47.9999885559082 47.29484558105469 47.9999885559082 L 8.705192565917969 47.9999885559082 C 4.846233367919922 47.9999885559082 2.441883087158203 43.81391525268555 4.386295318603516 40.48064041137695 L 23.68111801147461 7.403816223144531 C 24.64581871032715 5.750053405761719 26.32291984558105 4.923171997070312 28.0000171661377 4.923171997070312 Z"/></g><g class="f" transform="matrix(-0.788, -0.616, 0.616, -0.788, 163.289, 559.151)"><path class="i" d="M23.681,7.4a5,5,0,0,1,8.638,0L51.614,40.481A5,5,0,0,1,47.295,48H8.705a5,5,0,0,1-4.319-7.519Z"/><path class="j" d="M 28.00002861022949 11.90781784057617 L 10.44622802734375 42.00004959106445 L 45.55383682250977 42.00004959106445 L 28.00002861022949 11.90781784057617 M 28.00003242492676 4.923171997070312 C 29.67713165283203 4.923171997070312 31.35422897338867 5.750053405761719 32.31892395019531 7.403823852539062 L 51.61377334594727 40.48069763183594 C 53.55807876586914 43.81378173828125 51.15343856811523 48.00004959106445 47.29490280151367 48.00004959106445 C 47.2946662902832 48.00004959106445 47.29512023925781 48.00004959106445 47.29488372802734 48.00004959106445 L 8.705184936523438 48.00004959106445 C 4.846233367919922 48.00006103515625 2.441871643066406 43.81398773193359 4.386295318603516 40.48069763183594 L 23.68113327026367 7.403823852539062 C 24.64583396911621 5.750053405761719 26.32293510437012 4.923171997070312 28.00003242492676 4.923171997070312 Z"/></g><g class="f" transform="translate(337 48) rotate(180)"><path class="i" d="M23.681,7.4a5,5,0,0,1,8.638,0L51.614,40.481A5,5,0,0,1,47.295,48H8.705a5,5,0,0,1-4.319-7.519Z"/><path class="j" d="M 28.00003051757812 11.90779113769531 L 10.44622039794922 42.00001525878906 L 45.55383682250977 42.00001525878906 L 28.00003051757812 11.90779113769531 M 28.00002861022949 4.923168182373047 C 29.67712783813477 4.923168182373047 31.35422897338867 5.750049591064453 32.31892776489258 7.403812408447266 L 51.61376571655273 40.48065185546875 C 53.55817794799805 43.81393814086914 51.15382766723633 48.00001525878906 47.29486846923828 48.00001525878906 L 8.705192565917969 48.00001525878906 C 4.846229553222656 48.00001525878906 2.441879272460938 43.81393814086914 4.38629150390625 40.48065185546875 L 23.68112945556641 7.403812408447266 C 24.64582824707031 5.750049591064453 26.32292938232422 4.923168182373047 28.00002861022949 4.923168182373047 Z"/></g><path class="g" d="M10559.058,1788.168s-25.538-16.395,0-31.139,0-33.366,0-33.366" transform="translate(-10354.115 -821.829)"/><path class="g" d="M11.35,0s-25.538,16.395,0,31.139,0,33.367,0,33.367" transform="translate(429.899 436.342) rotate(150)"/><path class="g" d="M5.088,0s-11.447,7.349,0,13.957,0,14.956,0,14.956" transform="translate(53.051 618.605) rotate(150)"/><path class="g" d="M5.088,0s-11.447,7.349,0,13.957,0,14.956,0,14.956" transform="translate(416.052 774.605) rotate(150)"/><path class="g" d="M5.088,0s-11.447,7.349,0,13.957,0,14.956,0,14.956" transform="translate(216.052 197.605) rotate(150)"/><ellipse class="h" cx="5.5" cy="5.5" rx="5.5" ry="5.5" transform="translate(270 663)"/><ellipse class="h" cx="5.5" cy="5.5" rx="5.5" ry="5.5" transform="translate(310 873)"/><ellipse class="h" cx="5.5" cy="5.5" rx="5.5" ry="5.5" transform="translate(60 773)"/><ellipse class="h" cx="5.5" cy="5.5" rx="5.5" ry="5.5" transform="translate(0 303)"/><ellipse class="h" cx="5.5" cy="5.5" rx="5.5" ry="5.5" transform="translate(360 203)"/><path class="g" d="M10419.8,2118.864s-31.675,32.894-33.786-11.866" transform="translate(-10041.813 -1547.51)"/><path class="g" d="M0,11.649S31.675-21.244,33.786,23.516" transform="translate(227.462 330.985) rotate(45)"/><path class="g" d="M0,11.649S31.675-21.244,33.786,23.516" transform="matrix(0.259, -0.966, 0.966, 0.259, 45.362, 94.518)"/><path class="g" d="M0,11.649S31.675-21.244,33.786,23.516" transform="matrix(-0.966, -0.259, 0.259, -0.966, 66.366, 1027.972)"/></g><g class="e" transform="translate(3053.101 55.192)"><g class="f" transform="translate(404.289 1038.577) rotate(161)"><path class="i" d="M23.681,7.4a5,5,0,0,1,8.638,0L51.614,40.481A5,5,0,0,1,47.295,48H8.705a5,5,0,0,1-4.319-7.519Z"/><path class="j" d="M 28.00001525878906 11.90780258178711 L 10.44623184204102 41.9999885559082 L 45.55381011962891 41.9999885559082 L 28.00001525878906 11.90780258178711 M 28.0000171661377 4.923171997070312 C 29.67711639404297 4.923171997070312 31.35421371459961 5.750053405761719 32.31890869140625 7.403816223144531 L 51.61374282836914 40.48064041137695 C 53.55815505981445 43.81391525268555 51.15379333496094 47.9999885559082 47.29484558105469 47.9999885559082 L 8.705192565917969 47.9999885559082 C 4.846233367919922 47.9999885559082 2.441883087158203 43.81391525268555 4.386295318603516 40.48064041137695 L 23.68111801147461 7.403816223144531 C 24.64581871032715 5.750053405761719 26.32291984558105 4.923171997070312 28.0000171661377 4.923171997070312 Z"/></g><g class="f" transform="matrix(-0.788, -0.616, 0.616, -0.788, 163.289, 559.151)"><path class="i" d="M23.681,7.4a5,5,0,0,1,8.638,0L51.614,40.481A5,5,0,0,1,47.295,48H8.705a5,5,0,0,1-4.319-7.519Z"/><path class="j" d="M 28.00002861022949 11.90781784057617 L 10.44622802734375 42.00004959106445 L 45.55383682250977 42.00004959106445 L 28.00002861022949 11.90781784057617 M 28.00003242492676 4.923171997070312 C 29.67713165283203 4.923171997070312 31.35422897338867 5.750053405761719 32.31892395019531 7.403823852539062 L 51.61377334594727 40.48069763183594 C 53.55807876586914 43.81378173828125 51.15343856811523 48.00004959106445 47.29490280151367 48.00004959106445 C 47.2946662902832 48.00004959106445 47.29512023925781 48.00004959106445 47.29488372802734 48.00004959106445 L 8.705184936523438 48.00004959106445 C 4.846233367919922 48.00006103515625 2.441871643066406 43.81398773193359 4.386295318603516 40.48069763183594 L 23.68113327026367 7.403823852539062 C 24.64583396911621 5.750053405761719 26.32293510437012 4.923171997070312 28.00003242492676 4.923171997070312 Z"/></g><g class="f" transform="translate(337 48) rotate(180)"><path class="i" d="M23.681,7.4a5,5,0,0,1,8.638,0L51.614,40.481A5,5,0,0,1,47.295,48H8.705a5,5,0,0,1-4.319-7.519Z"/><path class="j" d="M 28.00003051757812 11.90779113769531 L 10.44622039794922 42.00001525878906 L 45.55383682250977 42.00001525878906 L 28.00003051757812 11.90779113769531 M 28.00002861022949 4.923168182373047 C 29.67712783813477 4.923168182373047 31.35422897338867 5.750049591064453 32.31892776489258 7.403812408447266 L 51.61376571655273 40.48065185546875 C 53.55817794799805 43.81393814086914 51.15382766723633 48.00001525878906 47.29486846923828 48.00001525878906 L 8.705192565917969 48.00001525878906 C 4.846229553222656 48.00001525878906 2.441879272460938 43.81393814086914 4.38629150390625 40.48065185546875 L 23.68112945556641 7.403812408447266 C 24.64582824707031 5.750049591064453 26.32292938232422 4.923168182373047 28.00002861022949 4.923168182373047 Z"/></g><path class="g" d="M10559.058,1788.168s-25.538-16.395,0-31.139,0-33.366,0-33.366" transform="translate(-10354.115 -821.829)"/><path class="g" d="M11.35,0s-25.538,16.395,0,31.139,0,33.367,0,33.367" transform="translate(429.899 436.342) rotate(150)"/><path class="g" d="M5.088,0s-11.447,7.349,0,13.957,0,14.956,0,14.956" transform="translate(53.051 618.605) rotate(150)"/><path class="g" d="M5.088,0s-11.447,7.349,0,13.957,0,14.956,0,14.956" transform="translate(416.052 774.605) rotate(150)"/><path class="g" d="M5.088,0s-11.447,7.349,0,13.957,0,14.956,0,14.956" transform="translate(216.052 197.605) rotate(150)"/><ellipse class="h" cx="5.5" cy="5.5" rx="5.5" ry="5.5" transform="translate(270 663)"/><ellipse class="h" cx="5.5" cy="5.5" rx="5.5" ry="5.5" transform="translate(310 873)"/><ellipse class="h" cx="5.5" cy="5.5" rx="5.5" ry="5.5" transform="translate(60 773)"/><ellipse class="h" cx="5.5" cy="5.5" rx="5.5" ry="5.5" transform="translate(0 303)"/><ellipse class="h" cx="5.5" cy="5.5" rx="5.5" ry="5.5" transform="translate(360 203)"/><path class="g" d="M10419.8,2118.864s-31.675,32.894-33.786-11.866" transform="translate(-10041.813 -1547.51)"/><path class="g" d="M0,11.649S31.675-21.244,33.786,23.516" transform="translate(227.462 330.985) rotate(45)"/><path class="g" d="M0,11.649S31.675-21.244,33.786,23.516" transform="matrix(0.259, -0.966, 0.966, 0.259, 45.362, 94.518)"/><path class="g" d="M0,11.649S31.675-21.244,33.786,23.516" transform="matrix(-0.966, -0.259, 0.259, -0.966, 66.366, 1027.972)"/></g><g class="e" transform="translate(1051.101 55.192)"><g class="f" transform="translate(25.611 18.232) rotate(-19)"><path class="i" d="M23.681,7.4a5,5,0,0,1,8.638,0L51.614,40.481A5,5,0,0,1,47.295,48H8.705a5,5,0,0,1-4.319-7.519Z"/><path class="j" d="M 28.00002288818359 11.90779113769531 L 10.44623184204102 41.9999885559082 L 45.55381011962891 41.9999885559082 L 28.00002288818359 11.90779113769531 M 28.00002098083496 4.923171997070312 C 29.67712020874023 4.923171997070312 31.35422134399414 5.750053405761719 32.31892013549805 7.403816223144531 L 51.61374664306641 40.48064041137695 C 53.55815887451172 43.81391525268555 51.15380859375 47.9999885559082 47.29486083984375 47.9999885559082 L 8.705184936523438 47.9999885559082 C 4.846233367919922 47.9999885559082 2.441883087158203 43.81391525268555 4.386295318603516 40.48064041137695 L 23.68112182617188 7.403816223144531 C 24.64582061767578 5.750053405761719 26.32292175292969 4.923171997070312 28.00002098083496 4.923171997070312 Z"/></g><g class="f" transform="matrix(0.788, 0.616, -0.616, 0.788, 266.611, 497.658)"><path class="i" d="M23.681,7.4a5,5,0,0,1,8.638,0L51.614,40.481A5,5,0,0,1,47.295,48H8.705a5,5,0,0,1-4.319-7.519Z"/><path class="j" d="M 28.00004768371582 11.90779876708984 L 10.44622421264648 42.00004959106445 L 45.55385589599609 42.00004959106445 L 28.00004768371582 11.90779876708984 M 28.00004196166992 4.923168182373047 C 29.67713928222656 4.923168182373047 31.35424041748047 5.750049591064453 32.31893920898438 7.403812408447266 L 51.61378860473633 40.48069763183594 C 53.55808258056641 43.81378173828125 51.15345764160156 48.00004959106445 47.29490661621094 48.00004959106445 C 47.29467010498047 48.00004959106445 47.29512786865234 48.00004959106445 47.29489135742188 48.00004959106445 L 8.705188751220703 48.00004959106445 C 4.846225738525391 48.00006103515625 2.441879272460938 43.81398773193359 4.38629150390625 40.48069763183594 L 23.68115234375 7.403812408447266 C 24.64584541320801 5.750049591064453 26.32294273376465 4.923168182373047 28.00004196166992 4.923168182373047 Z"/></g><g class="f" transform="translate(92.899 1008.809)"><path class="i" d="M23.681,7.4a5,5,0,0,1,8.638,0L51.614,40.481A5,5,0,0,1,47.295,48H8.705a5,5,0,0,1-4.319-7.519Z"/><path class="j" d="M 28.00002861022949 11.90780258178711 L 10.44623184204102 42.00001525878906 L 45.5538330078125 42.00001525878906 L 28.00002861022949 11.90780258178711 M 28.00003051757812 4.923168182373047 C 29.6771297454834 4.923168182373047 31.35422706604004 5.750049591064453 32.31892013549805 7.403812408447266 L 51.61376953125 40.48066329956055 C 53.55818176269531 43.81393814086914 51.15383148193359 48.00001525878906 47.29486846923828 48.00001525878906 L 8.705181121826172 48.00001525878906 C 4.846233367919922 48.00001525878906 2.441883087158203 43.81393814086914 4.386295318603516 40.48066329956055 L 23.68113327026367 7.403812408447266 C 24.64583206176758 5.750049591064453 26.32293319702148 4.923168182373047 28.00003051757812 4.923168182373047 Z"/></g><path class="g" d="M10559.057,1723.662s25.538,16.395,0,31.139,0,33.366,0,33.366" transform="translate(-10334.1 -1633.191)"/><path class="g" d="M11.35,0s-25.538,16.395,0,31.139,0,33.367,0,33.367" transform="translate(0 620.467) rotate(-30)"/><path class="g" d="M5.088,0s-11.447,7.349,0,13.957,0,14.956,0,14.956" transform="translate(376.848 438.204) rotate(-30)"/><path class="g" d="M5.088,0s-11.447,7.349,0,13.957,0,14.956,0,14.956" transform="translate(13.848 282.204) rotate(-30)"/><path class="g" d="M5.088,0s-11.447,7.349,0,13.957,0,14.956,0,14.956" transform="translate(213.848 859.204) rotate(-30)"/><ellipse class="h" cx="5.5" cy="5.5" rx="5.5" ry="5.5" transform="translate(148.899 382.808)"/><ellipse class="h" cx="5.5" cy="5.5" rx="5.5" ry="5.5" transform="translate(108.899 172.808)"/><ellipse class="h" cx="5.5" cy="5.5" rx="5.5" ry="5.5" transform="translate(358.899 272.808)"/><ellipse class="h" cx="5.5" cy="5.5" rx="5.5" ry="5.5" transform="translate(418.899 742.808)"/><ellipse class="h" cx="5.5" cy="5.5" rx="5.5" ry="5.5" transform="translate(58.899 842.808)"/><path class="g" d="M10386.014,2118.646s31.675-32.894,33.786,11.866" transform="translate(-10334.101 -1633.191)"/><path class="g" d="M0,11.649S31.675-21.244,33.786,23.516" transform="translate(202.438 725.824) rotate(-135)"/><path class="g" d="M0,11.649S31.675-21.244,33.786,23.516" transform="matrix(-0.259, 0.966, -0.966, -0.259, 384.537, 962.29)"/><path class="g" d="M0,11.649S31.675-21.244,33.786,23.516" transform="matrix(0.966, 0.259, -0.259, 0.966, 363.534, 28.836)"/></g><g class="e" transform="translate(1558.101 55.192)"><g class="f" transform="translate(78.56 1056.809) rotate(-161)"><path class="i" d="M23.681,7.4a5,5,0,0,1,8.638,0L51.614,40.481A5,5,0,0,1,47.295,48H8.705a5,5,0,0,1-4.319-7.519Z"/><path class="j" d="M 28.00002288818359 11.90779113769531 L 10.44623184204102 41.9999885559082 L 45.55381011962891 41.9999885559082 L 28.00002288818359 11.90779113769531 M 28.00002098083496 4.923171997070312 C 29.67712020874023 4.923171997070312 31.35422134399414 5.750053405761719 32.31892013549805 7.403816223144531 L 51.61374664306641 40.48064041137695 C 53.55815887451172 43.81391525268555 51.15380859375 47.9999885559082 47.29486083984375 47.9999885559082 L 8.705184936523438 47.9999885559082 C 4.846233367919922 47.9999885559082 2.441883087158203 43.81391525268555 4.386295318603516 40.48064041137695 L 23.68112182617188 7.403816223144531 C 24.64582061767578 5.750053405761719 26.32292175292969 4.923171997070312 28.00002098083496 4.923171997070312 Z"/></g><g class="f" transform="matrix(-0.788, 0.616, -0.616, -0.788, 310.739, 524.674)"><path class="i" d="M23.681,7.4a5,5,0,0,1,8.638,0L51.614,40.481A5,5,0,0,1,47.295,48H8.705a5,5,0,0,1-4.319-7.519Z"/><path class="j" d="M 28.00004386901855 11.90781402587891 L 10.44622039794922 42.00006484985352 L 45.55386352539062 42.00006484985352 L 28.00004386901855 11.90781402587891 M 28.00004196166992 4.923171997070312 C 29.67713928222656 4.923171997070312 31.3542366027832 5.750053405761719 32.31893157958984 7.403816223144531 L 51.61379241943359 40.4807014465332 C 53.55820465087891 43.81399154663086 51.15385437011719 48.00006484985352 47.29489135742188 48.00006484985352 L 8.705181121826172 48.00006484985352 C 4.846229553222656 48.00006484985352 2.441879272460938 43.81399154663086 4.38629150390625 40.4807014465332 L 23.68115615844727 7.403816223144531 C 24.64584732055664 5.750053405761719 26.32294464111328 4.923171997070312 28.00004196166992 4.923171997070312 Z"/></g><g class="f" transform="translate(148.899 48) rotate(180)"><path class="i" d="M23.681,7.4a5,5,0,0,1,8.638,0L51.614,40.481A5,5,0,0,1,47.295,48H8.705a5,5,0,0,1-4.319-7.519Z"/><path class="j" d="M 28.00002861022949 11.90780258178711 L 10.44623184204102 42.00001525878906 L 45.5538330078125 42.00001525878906 L 28.00002861022949 11.90780258178711 M 28.00003051757812 4.923168182373047 C 29.6771297454834 4.923168182373047 31.35422706604004 5.750049591064453 32.31892013549805 7.403812408447266 L 51.61376953125 40.48066329956055 C 53.55818176269531 43.81393814086914 51.15383148193359 48.00001525878906 47.29486846923828 48.00001525878906 L 8.705181121826172 48.00001525878906 C 4.846233367919922 48.00001525878906 2.441883087158203 43.81393814086914 4.386295318603516 40.48066329956055 L 23.68113327026367 7.403812408447266 C 24.64583206176758 5.750049591064453 26.32293319702148 4.923168182373047 28.00003051757812 4.923168182373047 Z"/></g><path class="g" d="M10559.057,1788.168s25.538-16.395,0-31.139,0-33.366,0-33.366" transform="translate(-10334.1 -821.829)"/><path class="g" d="M11.35,64.506s-25.538-16.395,0-31.139S11.35,0,11.35,0" transform="translate(32.253 380.478) rotate(30)"/><path class="g" d="M5.088,28.913s-11.447-7.349,0-13.957S5.088,0,5.088,0" transform="translate(391.304 593.566) rotate(30)"/><path class="g" d="M5.088,28.913s-11.447-7.349,0-13.957S5.088,0,5.088,0" transform="translate(28.304 749.566) rotate(30)"/><path class="g" d="M5.088,28.913s-11.447-7.349,0-13.957S5.088,0,5.088,0" transform="translate(228.304 172.566) rotate(30)"/><ellipse class="h" cx="5.5" cy="5.5" rx="5.5" ry="5.5" transform="translate(148.899 663)"/><ellipse class="h" cx="5.5" cy="5.5" rx="5.5" ry="5.5" transform="translate(108.899 873)"/><ellipse class="h" cx="5.5" cy="5.5" rx="5.5" ry="5.5" transform="translate(358.899 773)"/><ellipse class="h" cx="5.5" cy="5.5" rx="5.5" ry="5.5" transform="translate(418.899 303)"/><ellipse class="h" cx="5.5" cy="5.5" rx="5.5" ry="5.5" transform="translate(58.899 203)"/><path class="g" d="M10386.014,2118.864s31.675,32.894,33.786-11.866" transform="translate(-10334.101 -1547.51)"/><path class="g" d="M0,11.866S31.675,44.76,33.786,0" transform="translate(219.066 347.613) rotate(135)"/><path class="g" d="M0,11.866S31.675,44.76,33.786,0" transform="matrix(-0.259, -0.966, 0.966, -0.259, 361.823, 100.605)"/><path class="g" d="M0,11.866S31.675,44.76,33.786,0" transform="matrix(0.966, -0.259, 0.259, 0.966, 357.447, 1005.258)"/></g><g class="e" transform="translate(2065.101 55.192)"><g class="f" transform="translate(404.289 1038.577) rotate(161)"><path class="i" d="M23.681,7.4a5,5,0,0,1,8.638,0L51.614,40.481A5,5,0,0,1,47.295,48H8.705a5,5,0,0,1-4.319-7.519Z"/><path class="j" d="M 28.00002288818359 11.90779113769531 L 10.44623184204102 41.9999885559082 L 45.55381011962891 41.9999885559082 L 28.00002288818359 11.90779113769531 M 28.00002098083496 4.923171997070312 C 29.67712020874023 4.923171997070312 31.35422134399414 5.750053405761719 32.31892013549805 7.403816223144531 L 51.61374664306641 40.48064041137695 C 53.55815887451172 43.81391525268555 51.15380859375 47.9999885559082 47.29486083984375 47.9999885559082 L 8.705184936523438 47.9999885559082 C 4.846233367919922 47.9999885559082 2.441883087158203 43.81391525268555 4.386295318603516 40.48064041137695 L 23.68112182617188 7.403816223144531 C 24.64582061767578 5.750053405761719 26.32292175292969 4.923171997070312 28.00002098083496 4.923171997070312 Z"/></g><g class="f" transform="matrix(-0.788, -0.616, 0.616, -0.788, 163.289, 559.151)"><path class="i" d="M23.681,7.4a5,5,0,0,1,8.638,0L51.614,40.481A5,5,0,0,1,47.295,48H8.705a5,5,0,0,1-4.319-7.519Z"/><path class="j" d="M 28.00004577636719 11.90779495239258 L 10.44622421264648 42.00006866455078 L 45.55385971069336 42.00006866455078 L 28.00004577636719 11.90779495239258 M 28.00004386901855 4.923171997070312 C 29.67714309692383 4.923171997070312 31.35424423217773 5.750053405761719 32.31894302368164 7.403816223144531 L 51.61379241943359 40.48071670532227 C 53.55820465087891 43.81399154663086 51.15385437011719 48.00006866455078 47.29490661621094 48.00006866455078 L 8.705181121826172 48.00006866455078 C 4.846229553222656 48.00006866455078 2.441867828369141 43.81399154663086 4.386295318603516 40.48071670532227 L 23.68114471435547 7.403816223144531 C 24.64584350585938 5.750053405761719 26.32294464111328 4.923171997070312 28.00004386901855 4.923171997070312 Z"/></g><g class="f" transform="translate(337 48) rotate(180)"><path class="i" d="M23.681,7.4a5,5,0,0,1,8.638,0L51.614,40.481A5,5,0,0,1,47.295,48H8.705a5,5,0,0,1-4.319-7.519Z"/><path class="j" d="M 28.00002861022949 11.90780258178711 L 10.44623184204102 42.00001525878906 L 45.5538330078125 42.00001525878906 L 28.00002861022949 11.90780258178711 M 28.00003051757812 4.923168182373047 C 29.6771297454834 4.923168182373047 31.35422706604004 5.750049591064453 32.31892013549805 7.403812408447266 L 51.61376953125 40.48066329956055 C 53.55818176269531 43.81393814086914 51.15383148193359 48.00001525878906 47.29486846923828 48.00001525878906 L 8.705181121826172 48.00001525878906 C 4.846233367919922 48.00001525878906 2.441883087158203 43.81393814086914 4.386295318603516 40.48066329956055 L 23.68113327026367 7.403812408447266 C 24.64583206176758 5.750049591064453 26.32293319702148 4.923168182373047 28.00003051757812 4.923168182373047 Z"/></g><path class="g" d="M10559.057,1788.168s-25.538-16.395,0-31.139,0-33.366,0-33.366" transform="translate(-10354.114 -821.829)"/><path class="g" d="M11.35,0s-25.538,16.395,0,31.139,0,33.367,0,33.367" transform="translate(429.899 436.342) rotate(150)"/><path class="g" d="M5.088,0s-11.447,7.349,0,13.957,0,14.956,0,14.956" transform="translate(53.051 618.605) rotate(150)"/><path class="g" d="M5.088,0s-11.447,7.349,0,13.957,0,14.956,0,14.956" transform="translate(416.052 774.605) rotate(150)"/><path class="g" d="M5.088,0s-11.447,7.349,0,13.957,0,14.956,0,14.956" transform="translate(216.052 197.605) rotate(150)"/><ellipse class="h" cx="5.5" cy="5.5" rx="5.5" ry="5.5" transform="translate(270 663)"/><ellipse class="h" cx="5.5" cy="5.5" rx="5.5" ry="5.5" transform="translate(310 873)"/><ellipse class="h" cx="5.5" cy="5.5" rx="5.5" ry="5.5" transform="translate(60 773)"/><ellipse class="h" cx="5.5" cy="5.5" rx="5.5" ry="5.5" transform="translate(0 303)"/><ellipse class="h" cx="5.5" cy="5.5" rx="5.5" ry="5.5" transform="translate(360 203)"/><path class="g" d="M10419.8,2118.864s-31.675,32.894-33.786-11.866" transform="translate(-10041.813 -1547.51)"/><path class="g" d="M0,11.649S31.675-21.244,33.786,23.516" transform="translate(227.462 330.985) rotate(45)"/><path class="g" d="M0,11.649S31.675-21.244,33.786,23.516" transform="matrix(0.259, -0.966, 0.966, 0.259, 45.362, 94.518)"/><path class="g" d="M0,11.649S31.675-21.244,33.786,23.516" transform="matrix(-0.966, -0.259, 0.259, -0.966, 66.366, 1027.972)"/></g><g class="e" transform="translate(40.102 1233.192)"><g class="f" transform="translate(78.56 1056.809) rotate(-161)"><path class="i" d="M23.681,7.4a5,5,0,0,1,8.638,0L51.614,40.481A5,5,0,0,1,47.295,48H8.705a5,5,0,0,1-4.319-7.519Z"/><path class="j" d="M 28.0000171661377 11.90779113769531 L 10.44622421264648 41.9999885559082 L 45.55381774902344 41.9999885559082 L 28.0000171661377 11.90779113769531 M 28.00001907348633 4.923168182373047 C 29.6771183013916 4.923168182373047 31.35421562194824 5.750045776367188 32.31890869140625 7.403800964355469 L 51.61374664306641 40.48062896728516 C 53.55815887451172 43.81391525268555 51.1537971496582 47.9999885559082 47.29484558105469 47.9999885559082 L 8.705184936523438 47.9999885559082 C 4.846233367919922 47.9999885559082 2.441883087158203 43.81391525268555 4.386295318603516 40.48062896728516 L 23.68112182617188 7.403800964355469 C 24.64582061767578 5.750045776367188 26.32292175292969 4.923168182373047 28.00001907348633 4.923168182373047 Z"/></g><g class="f" transform="matrix(-0.788, 0.616, -0.616, -0.788, 310.739, 524.674)"><path class="i" d="M23.681,7.4a5,5,0,0,1,8.638,0L51.614,40.481A5,5,0,0,1,47.295,48H8.705a5,5,0,0,1-4.319-7.519Z"/><path class="j" d="M 28.00004577636719 11.90780258178711 L 10.44622421264648 42.00007247924805 L 45.55385971069336 42.00007247924805 L 28.00004577636719 11.90780258178711 M 28.00004386901855 4.923179626464844 C 29.67714309692383 4.923179626464844 31.35424423217773 5.75006103515625 32.31894302368164 7.403823852539062 L 51.61379241943359 40.48072052001953 C 53.55820465087891 43.81399917602539 51.15385437011719 48.00007247924805 47.29490661621094 48.00007247924805 L 8.705181121826172 48.00007247924805 C 4.846229553222656 48.00007247924805 2.441867828369141 43.81399917602539 4.386295318603516 40.48072052001953 L 23.68114471435547 7.403823852539062 C 24.64584350585938 5.75006103515625 26.32294464111328 4.923179626464844 28.00004386901855 4.923179626464844 Z"/></g><g class="f" transform="translate(148.899 48) rotate(180)"><path class="i" d="M23.681,7.4a5,5,0,0,1,8.638,0L51.614,40.481A5,5,0,0,1,47.295,48H8.705a5,5,0,0,1-4.319-7.519Z"/><path class="j" d="M 28.00002861022949 11.90780258178711 L 10.44623184204102 42.00001525878906 L 45.5538330078125 42.00001525878906 L 28.00002861022949 11.90780258178711 M 28.00003051757812 4.923168182373047 C 29.6771297454834 4.923168182373047 31.35422706604004 5.750049591064453 32.31892013549805 7.403812408447266 L 51.61376953125 40.48066329956055 C 53.55818176269531 43.81393814086914 51.15383148193359 48.00001525878906 47.29486846923828 48.00001525878906 L 8.705181121826172 48.00001525878906 C 4.846233367919922 48.00001525878906 2.441883087158203 43.81393814086914 4.386295318603516 40.48066329956055 L 23.68113327026367 7.403812408447266 C 24.64583206176758 5.750049591064453 26.32293319702148 4.923168182373047 28.00003051757812 4.923168182373047 Z"/></g><path class="g" d="M10559.057,1788.167s25.538-16.395,0-31.139,0-33.366,0-33.366" transform="translate(-10334.1 -821.829)"/><path class="g" d="M11.35,64.506s-25.538-16.395,0-31.139S11.35,0,11.35,0" transform="translate(32.253 380.478) rotate(30)"/><path class="g" d="M5.088,28.913s-11.447-7.349,0-13.957S5.088,0,5.088,0" transform="translate(391.304 593.566) rotate(30)"/><path class="g" d="M5.088,28.913s-11.447-7.349,0-13.957S5.088,0,5.088,0" transform="translate(28.304 749.566) rotate(30)"/><path class="g" d="M5.088,28.913s-11.447-7.349,0-13.957S5.088,0,5.088,0" transform="translate(228.304 172.566) rotate(30)"/><ellipse class="h" cx="5.5" cy="5.5" rx="5.5" ry="5.5" transform="translate(148.899 663)"/><ellipse class="h" cx="5.5" cy="5.5" rx="5.5" ry="5.5" transform="translate(108.899 873)"/><ellipse class="h" cx="5.5" cy="5.5" rx="5.5" ry="5.5" transform="translate(358.899 773)"/><ellipse class="h" cx="5.5" cy="5.5" rx="5.5" ry="5.5" transform="translate(418.899 303)"/><ellipse class="h" cx="5.5" cy="5.5" rx="5.5" ry="5.5" transform="translate(58.899 203)"/><path class="g" d="M10386.016,2118.863s31.675,32.894,33.786-11.866" transform="translate(-10334.103 -1547.509)"/><path class="g" d="M0,11.866S31.675,44.76,33.786,0" transform="translate(219.066 347.613) rotate(135)"/><path class="g" d="M0,11.866S31.675,44.76,33.786,0" transform="matrix(-0.259, -0.966, 0.966, -0.259, 361.823, 100.605)"/><path class="g" d="M0,11.866S31.675,44.76,33.786,0" transform="matrix(0.966, -0.259, 0.259, 0.966, 357.447, 1005.258)"/></g><g class="e" transform="translate(1561.102 1233.192)"><g class="f" transform="translate(351.34 0) rotate(19)"><path class="i" d="M23.681,7.4a5,5,0,0,1,8.638,0L51.614,40.481A5,5,0,0,1,47.295,48H8.705a5,5,0,0,1-4.319-7.519Z"/><path class="j" d="M 28.00001525878906 11.90780258178711 L 10.44622421264648 41.9999885559082 L 45.55381393432617 41.9999885559082 L 28.00001525878906 11.90780258178711 M 28.0000171661377 4.923171997070312 C 29.67711639404297 4.923171997070312 31.35421371459961 5.750053405761719 32.31890869140625 7.403816223144531 L 51.61374282836914 40.48062896728516 C 53.55815505981445 43.81391525268555 51.15379333496094 47.9999885559082 47.29484558105469 47.9999885559082 L 8.705192565917969 47.9999885559082 C 4.846233367919922 47.9999885559082 2.441883087158203 43.81391525268555 4.386295318603516 40.48062896728516 L 23.68111801147461 7.403816223144531 C 24.64581871032715 5.750053405761719 26.32291984558105 4.923171997070312 28.0000171661377 4.923171997070312 Z"/></g><g class="f" transform="matrix(0.788, -0.616, 0.616, 0.788, 119.16, 532.135)"><path class="i" d="M23.681,7.4a5,5,0,0,1,8.638,0L51.614,40.481A5,5,0,0,1,47.295,48H8.705a5,5,0,0,1-4.319-7.519Z"/><path class="j" d="M 28.00004768371582 11.90781784057617 L 10.44621276855469 42.00009155273438 L 45.55386734008789 42.00009155273438 L 28.00004768371582 11.90781784057617 M 28.00004577636719 4.923175811767578 C 29.67714309692383 4.923175811767578 31.35424041748047 5.750057220458984 32.31893157958984 7.403816223144531 L 51.61379623413086 40.48072814941406 C 53.55821990966797 43.81401824951172 51.15386962890625 48.00009155273438 47.29490661621094 48.00009155273438 L 8.705184936523438 48.00009155273438 C 4.846233367919922 48.00009155273438 2.441871643066406 43.81401824951172 4.386283874511719 40.48072814941406 L 23.68115997314453 7.403816223144531 C 24.64585113525391 5.750057220458984 26.32294845581055 4.923175811767578 28.00004577636719 4.923175811767578 Z"/></g><g class="f" transform="translate(281 1008.809)"><path class="i" d="M23.681,7.4a5,5,0,0,1,8.638,0L51.614,40.481A5,5,0,0,1,47.295,48H8.705a5,5,0,0,1-4.319-7.519Z"/><path class="j" d="M 28.00002861022949 11.90780258178711 L 10.44623184204102 42.00001525878906 L 45.5538330078125 42.00001525878906 L 28.00002861022949 11.90780258178711 M 28.00003051757812 4.923168182373047 C 29.6771297454834 4.923168182373047 31.35422706604004 5.750049591064453 32.31892013549805 7.403812408447266 L 51.61376953125 40.48066329956055 C 53.55818176269531 43.81393814086914 51.15383148193359 48.00001525878906 47.29486846923828 48.00001525878906 L 8.705181121826172 48.00001525878906 C 4.846233367919922 48.00001525878906 2.441883087158203 43.81393814086914 4.386295318603516 40.48066329956055 L 23.68113327026367 7.403812408447266 C 24.64583206176758 5.750049591064453 26.32293319702148 4.923168182373047 28.00003051757812 4.923168182373047 Z"/></g><path class="g" d="M10559.057,1723.662s-25.538,16.395,0,31.139,0,33.366,0,33.366" transform="translate(-10354.114 -1633.191)"/><path class="g" d="M11.35,64.506s-25.538-16.395,0-31.139S11.35,0,11.35,0" transform="translate(397.647 676.331) rotate(-150)"/><path class="g" d="M5.088,28.913s-11.447-7.349,0-13.957S5.088,0,5.088,0" transform="translate(38.595 463.243) rotate(-150)"/><path class="g" d="M5.088,28.913s-11.447-7.349,0-13.957S5.088,0,5.088,0" transform="translate(401.595 307.243) rotate(-150)"/><path class="g" d="M5.088,28.913s-11.447-7.349,0-13.957S5.088,0,5.088,0" transform="translate(201.595 884.243) rotate(-150)"/><ellipse class="h" cx="5.5" cy="5.5" rx="5.5" ry="5.5" transform="translate(270 382.808)"/><ellipse class="h" cx="5.5" cy="5.5" rx="5.5" ry="5.5" transform="translate(310 172.808)"/><ellipse class="h" cx="5.5" cy="5.5" rx="5.5" ry="5.5" transform="translate(60 272.808)"/><ellipse class="h" cx="5.5" cy="5.5" rx="5.5" ry="5.5" transform="translate(0 742.808)"/><ellipse class="h" cx="5.5" cy="5.5" rx="5.5" ry="5.5" transform="translate(360 842.808)"/><path class="g" d="M10419.8,2118.646s-31.675-32.894-33.786,11.866" transform="translate(-10041.816 -1633.191)"/><path class="g" d="M0,11.866S31.675,44.76,33.786,0" transform="translate(210.834 709.196) rotate(-45)"/><path class="g" d="M0,11.866S31.675,44.76,33.786,0" transform="matrix(0.259, 0.966, -0.966, 0.259, 68.077, 956.204)"/><path class="g" d="M0,11.866S31.675,44.76,33.786,0" transform="matrix(-0.966, 0.259, -0.259, -0.966, 72.452, 51.551)"/></g><g class="e" transform="translate(2575.102 1233.192)"><g class="f" transform="translate(25.611 18.232) rotate(-19)"><path class="i" d="M23.681,7.4a5,5,0,0,1,8.638,0L51.614,40.481A5,5,0,0,1,47.295,48H8.705a5,5,0,0,1-4.319-7.519Z"/><path class="j" d="M 28.00001525878906 11.90780258178711 L 10.44622421264648 41.9999885559082 L 45.55381393432617 41.9999885559082 L 28.00001525878906 11.90780258178711 M 28.0000171661377 4.923171997070312 C 29.67711639404297 4.923171997070312 31.35421371459961 5.750053405761719 32.31890869140625 7.403816223144531 L 51.61374282836914 40.48062896728516 C 53.55815505981445 43.81391525268555 51.15379333496094 47.9999885559082 47.29484558105469 47.9999885559082 L 8.705192565917969 47.9999885559082 C 4.846233367919922 47.9999885559082 2.441883087158203 43.81391525268555 4.386295318603516 40.48062896728516 L 23.68111801147461 7.403816223144531 C 24.64581871032715 5.750053405761719 26.32291984558105 4.923171997070312 28.0000171661377 4.923171997070312 Z"/></g><g class="f" transform="matrix(0.788, 0.616, -0.616, 0.788, 266.611, 497.657)"><path class="i" d="M23.681,7.4a5,5,0,0,1,8.638,0L51.614,40.481A5,5,0,0,1,47.295,48H8.705a5,5,0,0,1-4.319-7.519Z"/><path class="j" d="M 28.00005340576172 11.90780258178711 L 10.44622421264648 42.00009918212891 L 45.55386734008789 42.00009918212891 L 28.00005340576172 11.90780258178711 M 28.00004768371582 4.923179626464844 C 29.67714881896973 4.923179626464844 31.35425186157227 5.75006103515625 32.31895065307617 7.403823852539062 L 51.61380004882812 40.48075103759766 C 53.5582275390625 43.81402587890625 51.15386199951172 48.00009918212891 47.29491424560547 48.00009918212891 L 8.705188751220703 48.00009918212891 C 4.846225738525391 48.00009918212891 2.441875457763672 43.81402587890625 4.386287689208984 40.48075103759766 L 23.68115234375 7.403823852539062 C 24.64584541320801 5.75006103515625 26.32294464111328 4.923179626464844 28.00004768371582 4.923179626464844 Z"/></g><g class="f" transform="translate(92.899 1008.809)"><path class="i" d="M23.681,7.4a5,5,0,0,1,8.638,0L51.614,40.481A5,5,0,0,1,47.295,48H8.705a5,5,0,0,1-4.319-7.519Z"/><path class="j" d="M 28.00002861022949 11.90780258178711 L 10.44623184204102 42.00001525878906 L 45.5538330078125 42.00001525878906 L 28.00002861022949 11.90780258178711 M 28.00003051757812 4.923168182373047 C 29.6771297454834 4.923168182373047 31.35422706604004 5.750049591064453 32.31892013549805 7.403812408447266 L 51.61376953125 40.48066329956055 C 53.55818176269531 43.81393814086914 51.15383148193359 48.00001525878906 47.29486846923828 48.00001525878906 L 8.705181121826172 48.00001525878906 C 4.846233367919922 48.00001525878906 2.441883087158203 43.81393814086914 4.386295318603516 40.48066329956055 L 23.68113327026367 7.403812408447266 C 24.64583206176758 5.750049591064453 26.32293319702148 4.923168182373047 28.00003051757812 4.923168182373047 Z"/></g><path class="g" d="M10559.057,1723.661s25.538,16.395,0,31.139,0,33.366,0,33.366" transform="translate(-10334.1 -1633.191)"/><path class="g" d="M11.35,0s-25.538,16.395,0,31.139,0,33.367,0,33.367" transform="translate(0 620.467) rotate(-30)"/><path class="g" d="M5.088,0s-11.447,7.349,0,13.957,0,14.956,0,14.956" transform="translate(376.848 438.204) rotate(-30)"/><path class="g" d="M5.088,0s-11.447,7.349,0,13.957,0,14.956,0,14.956" transform="translate(13.848 282.204) rotate(-30)"/><path class="g" d="M5.088,0s-11.447,7.349,0,13.957,0,14.956,0,14.956" transform="translate(213.848 859.204) rotate(-30)"/><ellipse class="h" cx="5.5" cy="5.5" rx="5.5" ry="5.5" transform="translate(148.899 382.808)"/><ellipse class="h" cx="5.5" cy="5.5" rx="5.5" ry="5.5" transform="translate(108.899 172.808)"/><ellipse class="h" cx="5.5" cy="5.5" rx="5.5" ry="5.5" transform="translate(358.899 272.808)"/><ellipse class="h" cx="5.5" cy="5.5" rx="5.5" ry="5.5" transform="translate(418.899 742.808)"/><ellipse class="h" cx="5.5" cy="5.5" rx="5.5" ry="5.5" transform="translate(58.899 842.808)"/><path class="g" d="M10386.018,2118.645s31.675-32.894,33.786,11.866" transform="translate(-10334.104 -1633.19)"/><path class="g" d="M0,11.649S31.675-21.244,33.786,23.516" transform="translate(202.438 725.824) rotate(-135)"/><path class="g" d="M0,11.649S31.675-21.244,33.786,23.516" transform="matrix(-0.259, 0.966, -0.966, -0.259, 384.537, 962.29)"/><path class="g" d="M0,11.649S31.675-21.244,33.786,23.516" transform="matrix(0.966, 0.259, -0.259, 0.966, 363.534, 28.836)"/></g><g class="e" transform="translate(2068.102 1233.192)"><g class="f" transform="translate(404.289 1038.577) rotate(161)"><path class="i" d="M23.681,7.4a5,5,0,0,1,8.638,0L51.614,40.481A5,5,0,0,1,47.295,48H8.705a5,5,0,0,1-4.319-7.519Z"/><path class="j" d="M 28.00001525878906 11.90780258178711 L 10.44622421264648 41.9999885559082 L 45.55381393432617 41.9999885559082 L 28.00001525878906 11.90780258178711 M 28.0000171661377 4.923171997070312 C 29.67711639404297 4.923171997070312 31.35421371459961 5.750053405761719 32.31890869140625 7.403816223144531 L 51.61374282836914 40.48062896728516 C 53.55815505981445 43.81391525268555 51.15379333496094 47.9999885559082 47.29484558105469 47.9999885559082 L 8.705192565917969 47.9999885559082 C 4.846233367919922 47.9999885559082 2.441883087158203 43.81391525268555 4.386295318603516 40.48062896728516 L 23.68111801147461 7.403816223144531 C 24.64581871032715 5.750053405761719 26.32291984558105 4.923171997070312 28.0000171661377 4.923171997070312 Z"/></g><g class="f" transform="matrix(-0.788, -0.616, 0.616, -0.788, 163.289, 559.151)"><path class="i" d="M23.681,7.4a5,5,0,0,1,8.638,0L51.614,40.481A5,5,0,0,1,47.295,48H8.705a5,5,0,0,1-4.319-7.519Z"/><path class="j" d="M 28.00004386901855 11.90780639648438 L 10.44621276855469 42.00009536743164 L 45.55388259887695 42.00009536743164 L 28.00004386901855 11.90780639648438 M 28.00004577636719 4.923175811767578 C 29.67714500427246 4.923175811767578 31.3542423248291 5.750057220458984 32.31893539428711 7.403820037841797 L 51.61381149291992 40.48073196411133 C 53.55822372436523 43.81401824951172 51.15386199951172 48.00009536743164 47.2949104309082 48.00009536743164 L 8.705184936523438 48.00009536743164 C 4.846221923828125 48.00009536743164 2.441871643066406 43.81401824951172 4.386283874511719 40.48073196411133 L 23.68114852905273 7.403820037841797 C 24.64584732055664 5.750057220458984 26.32294845581055 4.923175811767578 28.00004577636719 4.923175811767578 Z"/></g><g class="f" transform="translate(337 48) rotate(180)"><path class="i" d="M23.681,7.4a5,5,0,0,1,8.638,0L51.614,40.481A5,5,0,0,1,47.295,48H8.705a5,5,0,0,1-4.319-7.519Z"/><path class="j" d="M 28.00002861022949 11.90780258178711 L 10.44623184204102 42.00001525878906 L 45.5538330078125 42.00001525878906 L 28.00002861022949 11.90780258178711 M 28.00003051757812 4.923168182373047 C 29.6771297454834 4.923168182373047 31.35422706604004 5.750049591064453 32.31892013549805 7.403812408447266 L 51.61376953125 40.48066329956055 C 53.55818176269531 43.81393814086914 51.15383148193359 48.00001525878906 47.29486846923828 48.00001525878906 L 8.705181121826172 48.00001525878906 C 4.846233367919922 48.00001525878906 2.441883087158203 43.81393814086914 4.386295318603516 40.48066329956055 L 23.68113327026367 7.403812408447266 C 24.64583206176758 5.750049591064453 26.32293319702148 4.923168182373047 28.00003051757812 4.923168182373047 Z"/></g><path class="g" d="M10559.057,1788.167s-25.538-16.395,0-31.139,0-33.366,0-33.366" transform="translate(-10354.114 -821.829)"/><path class="g" d="M11.35,0s-25.538,16.395,0,31.139,0,33.367,0,33.367" transform="translate(429.899 436.342) rotate(150)"/><path class="g" d="M5.088,0s-11.447,7.349,0,13.957,0,14.956,0,14.956" transform="translate(53.051 618.605) rotate(150)"/><path class="g" d="M5.088,0s-11.447,7.349,0,13.957,0,14.956,0,14.956" transform="translate(416.052 774.605) rotate(150)"/><path class="g" d="M5.088,0s-11.447,7.349,0,13.957,0,14.956,0,14.956" transform="translate(216.052 197.605) rotate(150)"/><ellipse class="h" cx="5.5" cy="5.5" rx="5.5" ry="5.5" transform="translate(270 663)"/><ellipse class="h" cx="5.5" cy="5.5" rx="5.5" ry="5.5" transform="translate(310 873)"/><ellipse class="h" cx="5.5" cy="5.5" rx="5.5" ry="5.5" transform="translate(60 773)"/><ellipse class="h" cx="5.5" cy="5.5" rx="5.5" ry="5.5" transform="translate(0 303)"/><ellipse class="h" cx="5.5" cy="5.5" rx="5.5" ry="5.5" transform="translate(360 203)"/><path class="g" d="M10419.8,2118.863s-31.675,32.894-33.786-11.866" transform="translate(-10041.816 -1547.509)"/><path class="g" d="M0,11.649S31.675-21.244,33.786,23.516" transform="translate(227.462 330.985) rotate(45)"/><path class="g" d="M0,11.649S31.675-21.244,33.786,23.516" transform="matrix(0.259, -0.966, 0.966, 0.259, 45.362, 94.518)"/><path class="g" d="M0,11.649S31.675-21.244,33.786,23.516" transform="matrix(-0.966, -0.259, 0.259, -0.966, 66.366, 1027.972)"/></g><g class="e" transform="translate(547.102 1233.192)"><g class="f" transform="translate(351.34 0) rotate(19)"><path class="i" d="M23.681,7.4a5,5,0,0,1,8.638,0L51.614,40.481A5,5,0,0,1,47.295,48H8.705a5,5,0,0,1-4.319-7.519Z"/><path class="j" d="M 28.0000171661377 11.90779113769531 L 10.44622421264648 41.9999885559082 L 45.55381774902344 41.9999885559082 L 28.0000171661377 11.90779113769531 M 28.00001907348633 4.923168182373047 C 29.6771183013916 4.923168182373047 31.35421562194824 5.750045776367188 32.31890869140625 7.403800964355469 L 51.61374664306641 40.48062896728516 C 53.55815887451172 43.81391525268555 51.1537971496582 47.9999885559082 47.29484558105469 47.9999885559082 L 8.705184936523438 47.9999885559082 C 4.846233367919922 47.9999885559082 2.441883087158203 43.81391525268555 4.386295318603516 40.48062896728516 L 23.68112182617188 7.403800964355469 C 24.64582061767578 5.750045776367188 26.32292175292969 4.923168182373047 28.00001907348633 4.923168182373047 Z"/></g><g class="f" transform="matrix(0.788, -0.616, 0.616, 0.788, 119.16, 532.135)"><path class="i" d="M23.681,7.4a5,5,0,0,1,8.638,0L51.614,40.481A5,5,0,0,1,47.295,48H8.705a5,5,0,0,1-4.319-7.519Z"/><path class="j" d="M 28.00004768371582 11.90781784057617 L 10.44621276855469 42.00009155273438 L 45.55386734008789 42.00009155273438 L 28.00004768371582 11.90781784057617 M 28.00004577636719 4.923175811767578 C 29.67714309692383 4.923175811767578 31.35424041748047 5.750057220458984 32.31893157958984 7.403816223144531 L 51.61379623413086 40.48072814941406 C 53.55821990966797 43.81401824951172 51.15386962890625 48.00009155273438 47.29490661621094 48.00009155273438 L 8.705184936523438 48.00009155273438 C 4.846233367919922 48.00009155273438 2.441871643066406 43.81401824951172 4.386283874511719 40.48072814941406 L 23.68115997314453 7.403816223144531 C 24.64585113525391 5.750057220458984 26.32294845581055 4.923175811767578 28.00004577636719 4.923175811767578 Z"/></g><g class="f" transform="translate(281 1008.809)"><path class="i" d="M23.681,7.4a5,5,0,0,1,8.638,0L51.614,40.481A5,5,0,0,1,47.295,48H8.705a5,5,0,0,1-4.319-7.519Z"/><path class="j" d="M 28.00002861022949 11.90780258178711 L 10.44623184204102 42.00001525878906 L 45.5538330078125 42.00001525878906 L 28.00002861022949 11.90780258178711 M 28.00003051757812 4.923168182373047 C 29.6771297454834 4.923168182373047 31.35422706604004 5.750049591064453 32.31892013549805 7.403812408447266 L 51.61376953125 40.48066329956055 C 53.55818176269531 43.81393814086914 51.15383148193359 48.00001525878906 47.29486846923828 48.00001525878906 L 8.705181121826172 48.00001525878906 C 4.846233367919922 48.00001525878906 2.441883087158203 43.81393814086914 4.386295318603516 40.48066329956055 L 23.68113327026367 7.403812408447266 C 24.64583206176758 5.750049591064453 26.32293319702148 4.923168182373047 28.00003051757812 4.923168182373047 Z"/></g><path class="g" d="M10559.057,1723.662s-25.538,16.395,0,31.139,0,33.366,0,33.366" transform="translate(-10354.114 -1633.191)"/><path class="g" d="M11.35,64.506s-25.538-16.395,0-31.139S11.35,0,11.35,0" transform="translate(397.647 676.331) rotate(-150)"/><path class="g" d="M5.088,28.913s-11.447-7.349,0-13.957S5.088,0,5.088,0" transform="translate(38.595 463.243) rotate(-150)"/><path class="g" d="M5.088,28.913s-11.447-7.349,0-13.957S5.088,0,5.088,0" transform="translate(401.595 307.243) rotate(-150)"/><path class="g" d="M5.088,28.913s-11.447-7.349,0-13.957S5.088,0,5.088,0" transform="translate(201.595 884.243) rotate(-150)"/><ellipse class="h" cx="5.5" cy="5.5" rx="5.5" ry="5.5" transform="translate(270 382.808)"/><ellipse class="h" cx="5.5" cy="5.5" rx="5.5" ry="5.5" transform="translate(310 172.808)"/><ellipse class="h" cx="5.5" cy="5.5" rx="5.5" ry="5.5" transform="translate(60 272.808)"/><ellipse class="h" cx="5.5" cy="5.5" rx="5.5" ry="5.5" transform="translate(0 742.808)"/><ellipse class="h" cx="5.5" cy="5.5" rx="5.5" ry="5.5" transform="translate(360 842.808)"/><path class="g" d="M10419.8,2118.646s-31.675-32.894-33.786,11.866" transform="translate(-10041.814 -1633.191)"/><path class="g" d="M0,11.866S31.675,44.76,33.786,0" transform="translate(210.834 709.196) rotate(-45)"/><path class="g" d="M0,11.866S31.675,44.76,33.786,0" transform="matrix(0.259, 0.966, -0.966, 0.259, 68.077, 956.204)"/><path class="g" d="M0,11.866S31.675,44.76,33.786,0" transform="matrix(-0.966, 0.259, -0.259, -0.966, 72.452, 51.551)"/></g><g class="e" transform="translate(1054.102 1233.192)"><g class="f" transform="translate(78.56 1056.809) rotate(-161)"><path class="i" d="M23.681,7.4a5,5,0,0,1,8.638,0L51.614,40.481A5,5,0,0,1,47.295,48H8.705a5,5,0,0,1-4.319-7.519Z"/><path class="j" d="M 28.00001525878906 11.90780258178711 L 10.44622421264648 41.9999885559082 L 45.55381393432617 41.9999885559082 L 28.00001525878906 11.90780258178711 M 28.0000171661377 4.923171997070312 C 29.67711639404297 4.923171997070312 31.35421371459961 5.750053405761719 32.31890869140625 7.403816223144531 L 51.61374282836914 40.48062896728516 C 53.55815505981445 43.81391525268555 51.15379333496094 47.9999885559082 47.29484558105469 47.9999885559082 L 8.705192565917969 47.9999885559082 C 4.846233367919922 47.9999885559082 2.441883087158203 43.81391525268555 4.386295318603516 40.48062896728516 L 23.68111801147461 7.403816223144531 C 24.64581871032715 5.750053405761719 26.32291984558105 4.923171997070312 28.0000171661377 4.923171997070312 Z"/></g><g class="f" transform="matrix(-0.788, 0.616, -0.616, -0.788, 310.739, 524.674)"><path class="i" d="M23.681,7.4a5,5,0,0,1,8.638,0L51.614,40.481A5,5,0,0,1,47.295,48H8.705a5,5,0,0,1-4.319-7.519Z"/><path class="j" d="M 28.00004577636719 11.90781021118164 L 10.44622039794922 42.00009536743164 L 45.55387878417969 42.00009536743164 L 28.00004577636719 11.90781021118164 M 28.00004386901855 4.923179626464844 C 29.67714309692383 4.923179626464844 31.35424423217773 5.75006103515625 32.31893920898438 7.403820037841797 L 51.61381149291992 40.48074722290039 C 53.55822372436523 43.81402206420898 51.15386199951172 48.00009536743164 47.29491424560547 48.00009536743164 L 8.705188751220703 48.00009536743164 C 4.846225738525391 48.00009536743164 2.441875457763672 43.81402206420898 4.386287689208984 40.48074722290039 L 23.68114852905273 7.403820037841797 C 24.64584350585938 5.75006103515625 26.32294273376465 4.923179626464844 28.00004386901855 4.923179626464844 Z"/></g><g class="f" transform="translate(148.899 48) rotate(180)"><path class="i" d="M23.681,7.4a5,5,0,0,1,8.638,0L51.614,40.481A5,5,0,0,1,47.295,48H8.705a5,5,0,0,1-4.319-7.519Z"/><path class="j" d="M 28.00002861022949 11.90780258178711 L 10.44623184204102 42.00001525878906 L 45.5538330078125 42.00001525878906 L 28.00002861022949 11.90780258178711 M 28.00003051757812 4.923168182373047 C 29.6771297454834 4.923168182373047 31.35422706604004 5.750049591064453 32.31892013549805 7.403812408447266 L 51.61376953125 40.48066329956055 C 53.55818176269531 43.81393814086914 51.15383148193359 48.00001525878906 47.29486846923828 48.00001525878906 L 8.705181121826172 48.00001525878906 C 4.846233367919922 48.00001525878906 2.441883087158203 43.81393814086914 4.386295318603516 40.48066329956055 L 23.68113327026367 7.403812408447266 C 24.64583206176758 5.750049591064453 26.32293319702148 4.923168182373047 28.00003051757812 4.923168182373047 Z"/></g><path class="g" d="M10559.057,1788.168s25.538-16.395,0-31.139,0-33.366,0-33.366" transform="translate(-10334.1 -821.829)"/><path class="g" d="M11.35,64.506s-25.538-16.395,0-31.139S11.35,0,11.35,0" transform="translate(32.253 380.478) rotate(30)"/><path class="g" d="M5.088,28.913s-11.447-7.349,0-13.957S5.088,0,5.088,0" transform="translate(391.304 593.566) rotate(30)"/><path class="g" d="M5.088,28.913s-11.447-7.349,0-13.957S5.088,0,5.088,0" transform="translate(28.304 749.566) rotate(30)"/><path class="g" d="M5.088,28.913s-11.447-7.349,0-13.957S5.088,0,5.088,0" transform="translate(228.304 172.566) rotate(30)"/><ellipse class="h" cx="5.5" cy="5.5" rx="5.5" ry="5.5" transform="translate(148.899 663)"/><ellipse class="h" cx="5.5" cy="5.5" rx="5.5" ry="5.5" transform="translate(108.899 873)"/><ellipse class="h" cx="5.5" cy="5.5" rx="5.5" ry="5.5" transform="translate(358.899 773)"/><ellipse class="h" cx="5.5" cy="5.5" rx="5.5" ry="5.5" transform="translate(418.899 303)"/><ellipse class="h" cx="5.5" cy="5.5" rx="5.5" ry="5.5" transform="translate(58.899 203)"/><path class="g" d="M10386.016,2118.864s31.675,32.894,33.786-11.866" transform="translate(-10334.103 -1547.51)"/><path class="g" d="M0,11.866S31.675,44.76,33.786,0" transform="translate(219.066 347.613) rotate(135)"/><path class="g" d="M0,11.866S31.675,44.76,33.786,0" transform="matrix(-0.259, -0.966, 0.966, -0.259, 361.823, 100.605)"/><path class="g" d="M0,11.866S31.675,44.76,33.786,0" transform="matrix(0.966, -0.259, 0.259, 0.966, 357.447, 1005.258)"/></g><g class="e" transform="translate(3082.102 1233.192)"><g class="f" transform="translate(25.611 18.232) rotate(-19)"><path class="i" d="M23.681,7.4a5,5,0,0,1,8.638,0L51.614,40.481A5,5,0,0,1,47.295,48H8.705a5,5,0,0,1-4.319-7.519Z"/><path class="j" d="M 28.00001525878906 11.90780258178711 L 10.44622421264648 41.9999885559082 L 45.55381393432617 41.9999885559082 L 28.00001525878906 11.90780258178711 M 28.0000171661377 4.923171997070312 C 29.67711639404297 4.923171997070312 31.35421371459961 5.750053405761719 32.31890869140625 7.403816223144531 L 51.61374282836914 40.48062896728516 C 53.55815505981445 43.81391525268555 51.15379333496094 47.9999885559082 47.29484558105469 47.9999885559082 L 8.705192565917969 47.9999885559082 C 4.846233367919922 47.9999885559082 2.441883087158203 43.81391525268555 4.386295318603516 40.48062896728516 L 23.68111801147461 7.403816223144531 C 24.64581871032715 5.750053405761719 26.32291984558105 4.923171997070312 28.0000171661377 4.923171997070312 Z"/></g><g class="f" transform="matrix(0.788, 0.616, -0.616, 0.788, 266.611, 497.658)"><path class="i" d="M23.681,7.4a5,5,0,0,1,8.638,0L51.614,40.481A5,5,0,0,1,47.295,48H8.705a5,5,0,0,1-4.319-7.519Z"/><path class="j" d="M 28.00005340576172 11.90780258178711 L 10.44622421264648 42.00009918212891 L 45.55386734008789 42.00009918212891 L 28.00005340576172 11.90780258178711 M 28.00004768371582 4.923179626464844 C 29.67714881896973 4.923179626464844 31.35425186157227 5.75006103515625 32.31895065307617 7.403823852539062 L 51.61380004882812 40.48075103759766 C 53.5582275390625 43.81402587890625 51.15386199951172 48.00009918212891 47.29491424560547 48.00009918212891 L 8.705188751220703 48.00009918212891 C 4.846225738525391 48.00009918212891 2.441875457763672 43.81402587890625 4.386287689208984 40.48075103759766 L 23.68115234375 7.403823852539062 C 24.64584541320801 5.75006103515625 26.32294464111328 4.923179626464844 28.00004768371582 4.923179626464844 Z"/></g><g class="f" transform="translate(92.899 1008.809)"><path class="i" d="M23.681,7.4a5,5,0,0,1,8.638,0L51.614,40.481A5,5,0,0,1,47.295,48H8.705a5,5,0,0,1-4.319-7.519Z"/><path class="j" d="M 28.00002861022949 11.90780258178711 L 10.44623184204102 42.00001525878906 L 45.5538330078125 42.00001525878906 L 28.00002861022949 11.90780258178711 M 28.00003051757812 4.923168182373047 C 29.6771297454834 4.923168182373047 31.35422706604004 5.750049591064453 32.31892013549805 7.403812408447266 L 51.61376953125 40.48066329956055 C 53.55818176269531 43.81393814086914 51.15383148193359 48.00001525878906 47.29486846923828 48.00001525878906 L 8.705181121826172 48.00001525878906 C 4.846233367919922 48.00001525878906 2.441883087158203 43.81393814086914 4.386295318603516 40.48066329956055 L 23.68113327026367 7.403812408447266 C 24.64583206176758 5.750049591064453 26.32293319702148 4.923168182373047 28.00003051757812 4.923168182373047 Z"/></g><path class="g" d="M10559.057,1723.662s25.538,16.395,0,31.139,0,33.366,0,33.366" transform="translate(-10334.1 -1633.191)"/><path class="g" d="M11.35,0s-25.538,16.395,0,31.139,0,33.367,0,33.367" transform="translate(0 620.467) rotate(-30)"/><path class="g" d="M5.088,0s-11.447,7.349,0,13.957,0,14.956,0,14.956" transform="translate(376.848 438.204) rotate(-30)"/><path class="g" d="M5.088,0s-11.447,7.349,0,13.957,0,14.956,0,14.956" transform="translate(13.848 282.204) rotate(-30)"/><path class="g" d="M5.088,0s-11.447,7.349,0,13.957,0,14.956,0,14.956" transform="translate(213.848 859.204) rotate(-30)"/><ellipse class="h" cx="5.5" cy="5.5" rx="5.5" ry="5.5" transform="translate(148.899 382.808)"/><ellipse class="h" cx="5.5" cy="5.5" rx="5.5" ry="5.5" transform="translate(108.899 172.808)"/><ellipse class="h" cx="5.5" cy="5.5" rx="5.5" ry="5.5" transform="translate(358.899 272.808)"/><ellipse class="h" cx="5.5" cy="5.5" rx="5.5" ry="5.5" transform="translate(418.899 742.808)"/><ellipse class="h" cx="5.5" cy="5.5" rx="5.5" ry="5.5" transform="translate(58.899 842.808)"/><path class="g" d="M10386.016,2118.646s31.675-32.894,33.786,11.866" transform="translate(-10334.103 -1633.191)"/><path class="g" d="M0,11.649S31.675-21.244,33.786,23.516" transform="translate(202.438 725.824) rotate(-135)"/><path class="g" d="M0,11.649S31.675-21.244,33.786,23.516" transform="matrix(-0.259, 0.966, -0.966, -0.259, 384.537, 962.29)"/><path class="g" d="M0,11.649S31.675-21.244,33.786,23.516" transform="matrix(0.966, 0.259, -0.259, 0.966, 363.534, 28.836)"/></g></g></svg>