<svg xmlns="http://www.w3.org/2000/svg" xmlns:xlink="http://www.w3.org/1999/xlink" width="1737" height="912" viewBox="0 0 1737 912"><defs><style>.a{fill:none;}.b{fill:#7a7fff;}.c{clip-path:url(#k);}.d{opacity:0.701;fill:url(#a);}.e{opacity:0.496;}.f{clip-path:url(#b);}.g{opacity:0.082;}.h{fill:#2f476c;}.i{opacity:0.509;fill:url(#c);}.j{fill:#2b2c53;}.k,.p{fill:#fff;}.l{fill:#2d2d2d;stroke:#2d2d2d;}.l,.p{stroke-linecap:round;stroke-linejoin:round;}.m{fill:#42448e;}.n{opacity:0.148;}.o{fill:#f4ebc9;}.p{stroke:#fff;mix-blend-mode:overlay;isolation:isolate;}.q{filter:url(#h);}.r{filter:url(#f);}.s{filter:url(#d);}</style><linearGradient id="a" x1="0.029" y1="0.979" x2="0.944" y2="0.051" gradientUnits="objectBoundingBox"><stop offset="0" stop-color="#093553" stop-opacity="0"/><stop offset="1" stop-color="#093553"/></linearGradient><clipPath id="b"><rect class="b" width="491.691" height="549.217" transform="matrix(0.998, -0.062, 0.062, 0.998, 0, 30.455)"/></clipPath><linearGradient id="c" x1="1" y1="1" x2="0.021" y2="0.017" xlink:href="#a"/><filter id="d" x="1429.675" y="363.534" width="141.012" height="215.002" filterUnits="userSpaceOnUse"><feOffset dx="-2" dy="-3" input="SourceAlpha"/><feGaussianBlur stdDeviation="3" result="e"/><feFlood flood-opacity="0.161"/><feComposite operator="in" in2="e"/><feComposite in="SourceGraphic"/></filter><filter id="f" x="1433.759" y="370.824" width="141.566" height="204.478" filterUnits="userSpaceOnUse"><feOffset dx="-2" dy="-3" input="SourceAlpha"/><feGaussianBlur stdDeviation="3" result="g"/><feFlood flood-opacity="0.161"/><feComposite operator="in" in2="g"/><feComposite in="SourceGraphic"/></filter><filter id="h" x="1433.754" y="377.452" width="148.199" height="199.616" filterUnits="userSpaceOnUse"><feOffset dx="-2" dy="-3" input="SourceAlpha"/><feGaussianBlur stdDeviation="3" result="i"/><feFlood flood-opacity="0.161"/><feComposite operator="in" in2="i"/><feComposite in="SourceGraphic"/></filter><clipPath id="k"><rect width="1737" height="912"/></clipPath></defs><g id="j" class="c"><g transform="translate(355.74 169.141)"><path class="d" d="M3341.513,122.886,2683.7,509.494l28.286,16.253L3370.4,138.68Z" transform="translate(-2048 -64)"/><g transform="translate(739.076 83.517)"><g transform="translate(101.852)"><g class="e" transform="translate(0)"><g transform="translate(0 0)"><g class="f"><path class="b" d="M397.588,34.173c-15.773-12.526-48.712-2.916-68.594-20.545S236.55-53.307,145.754,68.306c-28.167,37.71-40.441,50.828-74.957,69.058C-5.461,170.786-36.568,205.826,26.062,295.893,67.086,354.679,90.9,342.464,54.494,423.936c-17.411,38.967,90.213,135.028,194.185,79.4C331.322,444.15,506,554.8,478.717,204.037,468.933,106.869,414.223,47.3,397.588,34.173Z" transform="translate(24.616 26.244)"/></g></g></g></g><g class="g" transform="translate(0 249.543)"><path class="a" d="M534.439,16.6,445.3,199.054c3.513-1.326,7.091-2.784,10.737-4.44L541.531,19.582C539.277,18.655,536.891,17.594,534.439,16.6Z" transform="translate(-258.538 39.999)"/><path class="a" d="M598.279,2.44,499,205.572c2.784.2,5.7.2,8.483.133L605.967,4.428C603.382,3.766,600.864,3.1,598.279,2.44Z" transform="translate(-358.564 42.693)"/><path class="a" d="M671.563,22.2,575.2,219.566c2.187,1.325,4.44,2.651,6.694,3.844L679.118,24.453C676.6,23.724,674.082,23,671.563,22.2Z" transform="translate(-482.879 10.606)"/><path class="a" d="M464.073,58.7,397.6,194.7c4.242-2.585,8.351-5.169,12.46-7.887L469.972,64.2C468.116,62.279,466.128,60.489,464.073,58.7Z" transform="translate(-155.366 16.455)"/><path class="a" d="M511.308,27.8,428.2,197.927q5.666-2.684,11.333-5.567L518.2,31.313C515.484,29.788,513.1,28.6,511.308,27.8Z" transform="translate(-223.876 33.703)"/><path class="a" d="M421.07,108.931a37.682,37.682,0,0,0-1.326-6.031l-40.891,83.771c.862-.729,1.856-1.392,2.717-2.121a115.534,115.534,0,0,0,13.387-13.321L421.2,117.547A41.39,41.39,0,0,0,421.07,108.931Z" transform="translate(-94.336 -26.596)"/><path class="a" d="M657.7,14.862c-1.259-.265-2.452-.6-3.711-.862L556.3,213.884c2.386,1.193,4.639,2.187,7.025,3.247L661.809,15.458C660.417,15.259,659.026,15.127,657.7,14.862Z" transform="translate(-452.381 23.644)"/><path class="a" d="M442.394,81.417h0a1.031,1.031,0,0,0-.4-.53c-.53-.729-1.127-1.458-1.723-2.187L385,191.963c4.507-3.115,8.881-6.3,13.255-9.477L445.31,86.255C444.382,84.6,443.454,83.008,442.394,81.417Z" transform="translate(-122.354 -12.81)"/><path class="a" d="M617.477,3.5,517.8,207.493c2.585.6,5.236,1.127,7.82,1.458L625.231,5.223C622.646,4.627,620.062,4.03,617.477,3.5Z" transform="translate(-390.288 38.783)"/><path class="a" d="M688.636,31.8,593.4,226.581c2.121,1.524,4.308,3.049,6.429,4.44L695.86,34.584C693.408,33.722,691.022,32.728,688.636,31.8Z" transform="translate(-511.683 -3.368)"/><path class="a" d="M556.81,8,462.7,200.528c3.314-.928,6.694-2.055,10.206-3.247L564.1,10.651C561.714,9.657,559.262,8.862,556.81,8Z" transform="translate(-292.639 44.224)"/><path class="a" d="M578.19,3.1,480.7,202.653a71.9,71.9,0,0,0,8.152-1.325c.464-.066.862-.2,1.259-.265L585.679,5.353C583.227,4.558,580.708,3.829,578.19,3.1Z" transform="translate(-326.148 45.347)"/><path class="a" d="M635.914,7.6,536.9,210.2c2.452.862,4.971,1.789,7.356,2.452L643.8,8.992C641.15,8.462,638.5,8,635.914,7.6Z" transform="translate(-421.516 32.364)"/><path class="a" d="M488.119,41.9,412.5,196.519c3.91-2.121,7.887-4.374,11.8-6.627L494.415,46.407A56.428,56.428,0,0,0,488.119,41.9Z" transform="translate(-189.685 25.766)"/><path class="a" d="M720.651,55,627.8,244.943c1.988,1.789,3.976,3.513,5.965,5.3l93.646-191.4C725.091,57.585,722.9,56.325,720.651,55Z" transform="translate(-569.346 -37.967)"/><path class="a" d="M704.977,42.8,611,235.063c2.055,1.723,4.109,3.314,6.23,4.9L711.936,46.114C709.55,45.053,707.3,43.927,704.977,42.8Z" transform="translate(-539.423 -19.604)"/><path class="a" d="M735.956,68,644.1,256.154c1.922,1.922,3.844,3.844,5.832,5.7l92.387-189.28C740.2,71.115,738.011,69.591,735.956,68Z" transform="translate(-595.057 -58.191)"/><path class="h" d="M759.595,91.2,668.6,277.432c1.193,1.259,2.32,2.585,3.446,3.844l91.26-186.7C762.047,93.453,760.788,92.393,759.595,91.2Z" transform="translate(-626.317 -89.98)"/><path class="h" d="M730.453,63.1,638,252.248c1.259,1.193,2.452,2.32,3.711,3.38L734.5,65.751C733.17,64.889,731.778,63.962,730.453,63.1Z" transform="translate(-578.552 -47.393)"/><path class="h" d="M699.006,38.6,604.3,232.387c1.326.928,2.585,1.922,3.91,2.85L703.447,40.522C701.989,39.925,700.464,39.263,699.006,38.6Z" transform="translate(-525.831 -10.765)"/><path class="h" d="M628.978,5.7,529.5,209.362c1.524.464,3.181.862,4.706,1.259L633.882,6.628C632.226,6.363,630.635,5.965,628.978,5.7Z" transform="translate(-406.693 35.655)"/><path class="h" d="M665.325,18.9,568.1,217.856c1.392.729,2.784,1.458,4.308,2.187L670.03,20.159C668.44,19.762,666.849,19.364,665.325,18.9Z" transform="translate(-468.423 17.485)"/><path class="h" d="M593.069,3.229c-.862-.2-1.856-.53-2.717-.729L492,203.776a52.536,52.536,0,0,0,5.567-.464L594.991,3.759C594.328,3.56,593.731,3.428,593.069,3.229Z" transform="translate(-342.948 44.621)"/><path class="h" d="M745.291,76.7,653.7,264.191c1.193,1.259,2.386,2.452,3.513,3.645L749.135,79.749C747.81,78.755,746.551,77.76,745.291,76.7Z" transform="translate(-603.596 -66.626)"/><path class="h" d="M717.664,51.658c-.862-.464-1.789-.928-2.651-1.458L621.5,241.6c1.259,1.127,2.518,2.121,3.778,3.181L719.189,52.52C718.658,52.188,718.195,51.989,717.664,51.658Z" transform="translate(-552.972 -27.998)"/><path class="h" d="M647.35,11.3,548.8,212.974c1.458.663,2.982,1.193,4.507,1.789l99.014-202.6C650.664,11.83,649.007,11.631,647.35,11.3Z" transform="translate(-437.923 27.802)"/><path class="h" d="M682.566,28,586.6,224.372c1.326.862,2.717,1.789,4.043,2.585l96.43-197.366C685.614,29.127,684.024,28.53,682.566,28Z" transform="translate(-497.726 4.541)"/><path class="h" d="M610.044,2.6,510.5,206.328c1.723.2,3.38.464,5.1.6L614.882,3.793C613.292,3.329,611.635,2.931,610.044,2.6Z" transform="translate(-375.101 41.406)"/><path class="h" d="M569.168,5.6,473.6,201.243c1.988-.53,4.043-1.06,6.164-1.657L573.873,7.058C572.283,6.594,570.692,6.064,569.168,5.6Z" transform="translate(-309.637 45.1)"/><path class="h" d="M525.155,23.564h0c-.265-.133-.663-.265-1.06-.464L438.6,198.2c2.32-.928,4.573-1.988,6.893-3.115L528.535,24.956C526.414,24.028,525.155,23.564,525.155,23.564Z" transform="translate(-241.102 36.547)"/><path class="h" d="M441.98,197.734h0c.265.133.663.265,1.06.464L528.534,23.1c-2.32.928-4.573,1.988-6.893,3.115L438.6,196.342C440.721,197.27,441.98,197.734,441.98,197.734Z" transform="translate(-403.21 -23.1)"/><path class="h" d="M547.194,12.9,456,199.529c2.121-.729,4.374-1.524,6.495-2.386l89.139-182.52C550.176,13.96,548.718,13.5,547.194,12.9Z" transform="translate(-275.733 41.975)"/><path class="h" d="M500.668,36.1,422,197.147l7.158-3.778L504.777,38.685C503.319,37.691,501.993,36.829,500.668,36.1Z" transform="translate(-206.343 28.982)"/><path class="h" d="M426.109,197.147,504.777,36.1l-7.158,3.778L422,194.563C423.458,195.557,424.784,196.418,426.109,197.147Z" transform="translate(-397.611 -27.484)"/><path class="h" d="M476.817,52.033c-.066-.066-.133-.066-.2-.133L406.5,195.384c2.518-1.458,5.037-2.982,7.555-4.507l66.473-136C479.336,53.955,478.077,52.96,476.817,52.033Z" transform="translate(-171.822 20.273)"/><path class="h" d="M410.211,195.252c.066.066.133.066.2.133L480.529,51.9c-2.518,1.458-5.037,2.982-7.555,4.507L406.5,192.4C407.693,193.33,408.952,194.324,410.211,195.252Z" transform="translate(-392.384 -32.813)"/><path class="h" d="M452.412,70.6,392.5,193.208c2.651-1.789,5.3-3.513,7.953-5.368L455.792,74.51C454.8,73.185,453.605,71.925,452.412,70.6Z" transform="translate(-137.807 10.056)"/><path class="h" d="M395.88,193.208,455.792,70.6c-2.651,1.789-5.3,3.513-7.953,5.368L392.5,189.3C393.494,190.623,394.687,191.883,395.88,193.208Z" transform="translate(-387.662 -39.12)"/><path class="h" d="M423.6,126.3l-44.4,88.024c15.474-17.279,27.36-36.731,34.536-57.487C419.455,146.078,422.595,135.863,423.6,126.3Z" transform="translate(-100.781 -34.958)"/><path class="h" d="M379.2,214.324,423.6,126.3c-15.474,17.279-27.36,36.731-34.536,57.487C383.349,194.546,380.209,204.761,379.2,214.324Z" transform="translate(-379.2 -70.921)"/></g></g><path class="i" d="M2219.178,34.843l435.294,272.48-27.784,15.765-435.432-271.9Z" transform="translate(-1329.192 353.399)"/><g transform="translate(1084.282 193.499)"><path class="j" d="M0,69.485,119.294,0,119.1,142.366,0,206.114Z" transform="translate(0.098)"/><path class="k" d="M4.526,63.381,119.179,0l-.192,142.366L0,204.99Z" transform="translate(0.214 6.627)"/><g class="s" transform="matrix(1, 0, 0, 1, -1440.02, -362.64)"><path class="k" d="M-1.864,56.5,116.566-.544V143.85L-6.446,196.458Z" transform="translate(1447.12 376.08)"/></g><g class="r" transform="matrix(1, 0, 0, 1, -1440.02, -362.64)"><path class="k" d="M-1.8,49.287,121.762-.544V143.85L-1.8,185.934Z" transform="translate(1446.56 383.37)"/></g><g class="q" transform="matrix(1, 0, 0, 1, -1440.02, -362.64)"><path class="k" d="M-2.546,42.652l130.2-43.2V143.85L-.33,181.072Z" transform="translate(1447.3 390)"/></g><path class="l" d="M2385.986,396.161l97.156-32.574v1.6l-97.156,32.635Z" transform="translate(-2354.839 -310.595)"/><path class="l" d="M2385.986,396.161l97.156-32.574v1.6l-97.156,32.635Z" transform="translate(-2354.839 -306.595)"/><path class="l" d="M2385.986,396.161l97.156-32.574v1.6l-97.156,32.635Z" transform="translate(-2354.839 -271.595)"/><path class="l" d="M2385.986,396.161l97.156-32.574v1.6l-97.156,32.635Z" transform="translate(-2354.839 -302.595)"/><path class="l" d="M2385.986,396.161l97.156-32.574v1.6l-97.156,32.635Z" transform="translate(-2354.839 -267.595)"/><path class="l" d="M2385.986,396.161l97.156-32.574v1.6l-97.156,32.635Z" transform="translate(-2354.839 -255.595)"/><path class="l" d="M2385.986,395.286l94.4-31.7v1.558l-94.4,31.758Z" transform="translate(-2354.839 -297.675)"/><path class="l" d="M2385.986,395.286l94.4-31.7v1.558l-94.4,31.758Z" transform="translate(-2354.839 -262.675)"/><path class="l" d="M2385.986,396.161l97.156-32.574v1.6l-97.156,32.635Z" transform="translate(-2354.839 -294.595)"/><path class="l" d="M2385.986,396.161l97.156-32.574v1.6l-97.156,32.635Z" transform="translate(-2354.839 -285.595)"/><path class="l" d="M2385.986,396.161l97.156-32.574v1.6l-97.156,32.635Z" transform="translate(-2354.839 -245.595)"/><path class="l" d="M2385.986,393.416l88.245-29.829v1.466l-88.245,29.885Z" transform="translate(-2354.839 -278.71)"/><path class="l" d="M2385.986,393.416l88.245-29.829v1.466l-88.245,29.885Z" transform="translate(-2354.839 -238.71)"/><path class="l" d="M2385.986,393.416l88.245-29.829v1.466l-88.245,29.885Z" transform="translate(-2351.839 -257.71)"/><path class="l" d="M2385.986,383.2l56.563-19.61v6.382l-56.563,19.646Z" transform="translate(-2336.839 -317.387)"/><path class="m" d="M119.393,68.07,0-4.2.1,137.985,119.393,204.7Z" transform="translate(0 73.654)"/></g></g><g class="n" transform="matrix(-0.966, 0.259, -0.259, -0.966, 602.152, 1145.425)"><path class="a" d="M579.8,16.6,445.3,291.9c5.3-2,10.7-4.2,16.2-6.7l129-264.1C587.1,19.7,583.5,18.1,579.8,16.6Z" transform="translate(-98.4 324.025)"/><path class="a" d="M648.8,2.44,499,308.94c4.2.3,8.6.3,12.8.2L660.4,5.44C656.5,4.44,652.7,3.44,648.8,2.44Z" transform="translate(-222 320.885)"/><path class="a" d="M720.6,22.2,575.2,320c3.3,2,6.7,4,10.1,5.8L732,25.6C728.2,24.5,724.4,23.4,720.6,22.2Z" transform="translate(-370.8 282.525)"/><path class="a" d="M497.9,58.7,397.6,263.9c6.4-3.9,12.6-7.8,18.8-11.9L506.8,67C504,64.1,501,61.4,497.9,58.7Z" transform="translate(33 309.925)"/><path class="a" d="M553.6,27.8,428.2,284.5q8.55-4.05,17.1-8.4L564,33.1C559.9,30.8,556.3,29,553.6,27.8Z" transform="translate(-54.8 320.225)"/><path class="a" d="M442.553,112a56.855,56.855,0,0,0-2-9.1l-61.7,126.4c1.3-1.1,2.8-2.1,4.1-3.2a174.331,174.331,0,0,0,20.2-20.1l39.6-81A62.451,62.451,0,0,0,442.553,112Z" transform="translate(115.547 267.457)"/><path class="a" d="M709.3,15.3c-1.9-.4-3.7-.9-5.6-1.3L556.3,315.6c3.6,1.8,7,3.3,10.6,4.9L715.5,16.2C713.4,15.9,711.3,15.7,709.3,15.3Z" transform="translate(-334.4 298.025)"/><path class="a" d="M471.6,82.8h0a1.555,1.555,0,0,0-.6-.8c-.8-1.1-1.7-2.2-2.6-3.3L385,249.6c6.8-4.7,13.4-9.5,20-14.3L476,90.1C474.6,87.6,473.2,85.2,471.6,82.8Z" transform="translate(76.4 275.944)"/><path class="a" d="M668.2,3.5,517.8,311.3c3.9.9,7.9,1.7,11.8,2.2L679.9,6.1C676,5.2,672.1,4.3,668.2,3.5Z" transform="translate(-260.3 315.525)"/><path class="a" d="M737.1,31.8,593.4,325.7c3.2,2.3,6.5,4.6,9.7,6.7L748,36C744.3,34.7,740.7,33.2,737.1,31.8Z" transform="translate(-403.965 262.461)"/><path class="a" d="M604.7,8l-142,290.5c5-1.4,10.1-3.1,15.4-4.9L615.7,12C612.1,10.5,608.4,9.3,604.7,8Z" transform="translate(-141 326.025)"/><path class="a" d="M627.8,3.1,480.7,304.2a108.49,108.49,0,0,0,12.3-2c.7-.1,1.3-.3,1.9-.4L639.1,6.5C635.4,5.3,631.6,4.2,627.8,3.1Z" transform="translate(-182.4 325.225)"/><path class="a" d="M686.3,7.6,536.9,313.3c3.7,1.3,7.5,2.7,11.1,3.7L698.2,9.7C694.2,8.9,690.2,8.2,686.3,7.6Z" transform="translate(-297.7 307.925)"/><path class="a" d="M526.6,41.9,412.5,275.2c5.9-3.2,11.9-6.6,17.8-10L536.1,48.7A85.146,85.146,0,0,0,526.6,41.9Z" transform="translate(-11.2 315.425)"/><path class="a" d="M900.7,248.7,784.8,485.9c1.8,5.1,3.7,10.1,5.6,15L911.3,253.7A85.278,85.278,0,0,0,900.7,248.7Z" transform="translate(-763.923 -245.598)"/><path class="a" d="M907.6,273.7l-105.5,216c1.6,5.5,3.2,11,4.9,16.4L919.4,276.4C915.4,275.3,911.5,274.4,907.6,273.7Z" transform="translate(-789.323 -275.798)"/><path class="a" d="M892.4,225.5,768.9,478.1c2,4.8,4,9.5,6,14.2L902,232.3C898.8,229.9,895.6,227.6,892.4,225.5Z" transform="translate(-738.723 -213.798)"/><path class="a" d="M883,203.8,754,467.6h0c2.1,4.6,4.2,8.9,6.5,13.3L892,211.7C889,209.1,886,206.4,883,203.8Z" transform="translate(-713.823 -180.698)"/><path class="a" d="M912.9,301.8,821.6,488.6c1.1,6.1,2.5,12.3,4,18.3l100.6-206A101.328,101.328,0,0,0,912.9,301.8Z" transform="translate(-815.623 -303.798)"/><path class="a" d="M872.9,183.3,740,455.1c2.2,4.3,4.6,8.5,6.8,12.5L881.4,192.3C878.7,189.2,875.8,186.2,872.9,183.3Z" transform="translate(-689.223 -146.898)"/><path class="a" d="M929.7,369.8a144.967,144.967,0,0,0-20,16.9L873.8,460a193.732,193.732,0,0,0-2.6,31.7l60.2-123.2A10.915,10.915,0,0,1,929.7,369.8Z" transform="translate(-870.423 -356.198)"/><path class="a" d="M914.7,337.4,843.9,482.3c.4,7.2,1.2,14.5,2.3,21.7l84.5-172.7A85.619,85.619,0,0,0,914.7,337.4Z" transform="translate(-842.423 -331.298)"/><path class="a" d="M861.9,164,726.5,441.2c1.2,2,2.3,4,3.6,6,1.2,1.9,2.5,3.8,3.7,5.6L870.1,173.7C867.3,170.4,864.7,167.1,861.9,164Z" transform="translate(-664.423 -112.798)"/><path class="a" d="M825,112.7,687.6,393.9c2.7,3.3,5.3,6.7,8,10L833,122.9C830.5,119.5,827.8,116.2,825,112.7Z" transform="translate(-588.423 47.05)"/><path class="a" d="M797.3,82.2,659.6,363.9c2.8,3,5.7,6.1,8.5,9L806.3,90C803.3,87.6,800.2,85,797.3,82.2Z" transform="translate(-533.723 126.356)"/><path class="a" d="M767.9,55,627.8,341.6c3,2.7,6,5.3,9,8L778.1,60.8C774.6,58.9,771.3,57,767.9,55Z" transform="translate(-473.724 223.027)"/><path class="a" d="M752.8,42.8,611,332.9c3.1,2.6,6.2,5,9.4,7.4L763.3,47.8C759.7,46.2,756.3,44.5,752.8,42.8Z" transform="translate(-436.865 243.561)"/><path class="a" d="M818.9,105.5c-2.5-2.7-4.9-5.6-7.4-8.6L674.2,378c2.7,3.2,5.5,6.5,8.2,9.6L819.9,106.5Z" transform="translate(-561.923 88.446)"/><path class="a" d="M850.2,146.2,713.4,426.1c2.5,3.7,5,7.2,7.6,10.9L858.3,156.3C855.7,152.9,853,149.6,850.2,146.2Z" transform="translate(-639.523 -79.198)"/><path class="a" d="M837.8,129,700.5,410.1c2.6,3.5,5.1,7,7.8,10.5L845.7,139.3C843.1,135.9,840.5,132.5,837.8,129Z" transform="translate(-614.023 4.454)"/><path class="a" d="M782.7,68,644.1,351.9c2.9,2.9,5.8,5.8,8.8,8.6L792.3,74.9C789.1,72.7,785.8,70.4,782.7,68Z" transform="translate(-504.224 199.127)"/><path class="o" d="M920,359.1,859.8,482.3c0,5.1.2,10.3.6,15.5l70.8-144.9A78.143,78.143,0,0,0,920,359.1Z" transform="translate(-858.823 -346.698)"/><path class="o" d="M899.3,239.7,778.5,486.9c1.2,3,2.5,6.1,3.7,9L905.6,243.3C903.5,242,901.5,240.8,899.3,239.7Z" transform="translate(-751.923 -231.598)"/><path class="o" d="M914.4,290,813.8,496c.9,3.6,1.8,7.1,2.8,10.7l105.5-216A68.828,68.828,0,0,0,914.4,290Z" transform="translate(-803.723 -292.698)"/><path class="o" d="M880,195.7,748.5,464.9c1.3,2.7,2.8,5.3,4.1,8l132.9-272C883.7,199.2,881.8,197.4,880,195.7Z" transform="translate(-701.823 -164.598)"/><path class="o" d="M857.9,157.1,721.5,436.2c1.6,2.3,3.1,4.6,4.7,6.9L862.9,163.2C861.3,161.1,859.6,159.1,857.9,157.1Z" transform="translate(-652.223 -96.198)"/><path class="o" d="M805.9,91.2l-137.3,281c1.8,1.9,3.5,3.9,5.2,5.8L811.5,96.3C809.6,94.6,807.7,93,805.9,91.2Z" transform="translate(-552.149 110.28)"/><path class="o" d="M805.9,91.2l-137.3,281c1.8,1.9,3.5,3.9,5.2,5.8L811.5,96.3C809.6,94.6,807.7,93,805.9,91.2Z" transform="translate(-544.7 135.865)"/><path class="o" d="M805.9,91.2l-137.3,281c1.8,1.9,3.5,3.9,5.2,5.8L811.5,96.3C809.6,94.6,807.7,93,805.9,91.2Z" transform="translate(-538.923 162.968)"/><path class="o" d="M833,122.6,695.6,403.9c1.7,2.1,3.3,4.2,4.9,6.4L837.9,129C836.3,126.9,834.7,124.8,833,122.6Z" transform="translate(-601.323 12.133)"/><path class="o" d="M777.5,63.1,638,348.5c1.9,1.8,3.7,3.5,5.6,5.1l140-286.5C781.6,65.8,779.5,64.4,777.5,63.1Z" transform="translate(-482.423 212.927)"/><path class="o" d="M747.2,38.6,604.3,331c2,1.4,3.9,2.9,5.9,4.3L753.9,41.5C751.7,40.6,749.4,39.6,747.2,38.6Z" transform="translate(-419.765 254.761)"/><path class="o" d="M679.6,5.7,529.5,313c2.3.7,4.8,1.3,7.1,1.9L687,7.1C684.5,6.7,682.1,6.1,679.6,5.7Z" transform="translate(-279.1 311.925)"/><path class="o" d="M714.8,18.9,568.1,319.1c2.1,1.1,4.2,2.2,6.5,3.3L721.9,20.8C719.5,20.2,717.1,19.6,714.8,18.9Z" transform="translate(-352.6 291.225)"/><path class="o" d="M644.5,3.6c-1.3-.3-2.8-.8-4.1-1.1L492,306.2a79.271,79.271,0,0,0,8.4-.7L647.4,4.4C646.4,4.1,645.5,3.9,644.5,3.6Z" transform="translate(-202 323.825)"/><path class="o" d="M892.8,473.5l35.9-73.3C908.5,421,897.4,446.2,892.8,473.5Z" transform="translate(-890.1 -366.8)"/><path class="o" d="M907.3,263.8,795.1,493.6c1.1,3.2,2.1,6.6,3.3,9.8L914.3,266.3C911.8,265.4,909.5,264.5,907.3,263.8Z" transform="translate(-777.223 -263.198)"/><path class="o" d="M919.3,321.1,834.9,493.7c.6,4.1,1.3,8.1,2.1,12.3l91.3-186.8C925.3,319.7,922.3,320.4,919.3,321.1Z" transform="translate(-831.023 -321.198)"/><path class="o" d="M890.1,217.1,763,477.1c1.3,2.9,2.6,5.7,3.9,8.5l129-263.8C894,220.1,892,218.7,890.1,217.1Z" transform="translate(-726.723 -198.698)"/><path class="o" d="M869.2,175.6,734.7,451c1.4,2.6,2.9,5.1,4.3,7.6L874.5,181.4C872.7,179.4,871,177.5,869.2,175.6Z" transform="translate(-677.023 -130.198)"/><path class="o" d="M819.9,106.5,682.6,387.6c1.7,2,3.3,4,5.1,6.1L824.9,112.6C823.3,110.6,821.6,108.6,819.9,106.5Z" transform="translate(-572.065 70.195)"/><path class="o" d="M819.9,106.5,682.6,387.6c1.7,2,3.3,4,5.1,6.1L824.9,112.6C823.3,110.6,821.6,108.6,819.9,106.5Z" transform="translate(-580.065 47.195)"/><path class="o" d="M845.6,139.4,708.4,420.2c1.6,2.2,3.2,4.5,4.8,6.7L850.6,145.7C848.9,143.6,847.2,141.5,845.6,139.4Z" transform="translate(-623.823 -25.785)"/><path class="o" d="M845.6,139.4,708.4,420.2c1.6,2.2,3.2,4.5,4.8,6.7L850.6,145.7C848.9,143.6,847.2,141.5,845.6,139.4Z" transform="translate(-631.823 -52.785)"/><path class="o" d="M791.9,76.7,653.7,359.6c1.8,1.9,3.6,3.7,5.3,5.5L797.7,81.3C795.7,79.8,793.8,78.3,791.9,76.7Z" transform="translate(-512.223 190.827)"/><path class="o" d="M766.6,52.4c-1.3-.7-2.7-1.4-4-2.2L621.5,339c1.9,1.7,3.8,3.2,5.7,4.8L768.9,53.7C768.1,53.2,767.4,52.9,766.6,52.4Z" transform="translate(-451.965 234.661)"/><path class="o" d="M697.5,11.3,548.8,315.6c2.2,1,4.5,1.8,6.8,2.7L705,12.6C702.5,12.1,700,11.8,697.5,11.3Z" transform="translate(-316.4 302.925)"/><path class="o" d="M731.4,28,586.6,324.3c2,1.3,4.1,2.7,6.1,3.9L738.2,30.4C736,29.7,733.6,28.8,731.4,28Z" transform="translate(-386.365 272.461)"/><path class="o" d="M660.7,2.6,510.5,310c2.6.3,5.1.7,7.7.9L668,4.4C665.6,3.7,663.1,3.1,660.7,2.6Z" transform="translate(-241.1 319.025)"/><path class="o" d="M617.8,5.6,473.6,300.8c3-.8,6.1-1.6,9.3-2.5L624.9,7.8C622.5,7.1,620.1,6.3,617.8,5.6Z" transform="translate(-161.1 326.125)"/><path class="o" d="M569.2,23.8h0c-.4-.2-1-.4-1.6-.7l-129,264.2c3.5-1.4,6.9-3,10.4-4.7L574.3,25.9C571.1,24.5,569.2,23.8,569.2,23.8Z" transform="translate(-75.5 322.125)"/><path class="o" d="M593.6,12.9,456,294.5c3.2-1.1,6.6-2.3,9.8-3.6L600.3,15.5C598.1,14.5,595.9,13.8,593.6,12.9Z" transform="translate(-118.9 325.125)"/><path class="o" d="M540.7,36.1,422,279.1l10.8-5.7L546.9,40C544.7,38.5,542.7,37.2,540.7,36.1Z" transform="translate(-31.5 317.325)"/><path class="o" d="M512.6,52.1c-.1-.1-.2-.1-.3-.2L406.5,268.4c3.8-2.2,7.6-4.5,11.4-6.8L518.2,56.4C516.4,55,514.5,53.5,512.6,52.1Z" transform="translate(12.7 312.225)"/><path class="o" d="M482.9,70.6l-90.4,185c4-2.7,8-5.3,12-8.1L488,76.5C486.5,74.5,484.7,72.6,482.9,70.6Z" transform="translate(56.9 306.325)"/><path class="o" d="M446.2,126.3l-67,132.817c23.348-26.072,41.283-55.423,52.111-86.741C439.94,156.143,444.677,140.73,446.2,126.3Z" transform="translate(106 266.748)"/></g><g transform="translate(1459.015 509.022)"><g transform="translate(0)"><path class="k" d="M189.77,286.107a.482.482,0,0,0,.47-.47V269.17a.47.47,0,1,0-.939,0v16.468A.482.482,0,0,0,189.77,286.107Z" transform="translate(-117.317 -217.878)"/><path class="k" d="M166.72,326.212l10.958,6.481a.589.589,0,0,0,.25.063.58.58,0,0,0,.219-.063.489.489,0,0,0,.25-.407v-5.855a.535.535,0,0,0-.219-.407l-4.164-2.442-2.724-1.6v-8.422l-.939-.563v9.236a.535.535,0,0,0,.219.407l1.972,1.158,4.915,2.88v4.79L167.189,325.4a.457.457,0,0,0-.626.157A.5.5,0,0,0,166.72,326.212Z" transform="translate(-98.337 -248.308)"/><path class="k" d="M204.275,348.129a1.565,1.565,0,0,0,.657-.157,1.584,1.584,0,0,0,.689-1.44,3.973,3.973,0,0,0-1.847-3.162,1.565,1.565,0,0,0-1.6-.125,1.584,1.584,0,0,0-.689,1.44,3.973,3.973,0,0,0,1.847,3.162A1.732,1.732,0,0,0,204.275,348.129ZM202.835,344a1.04,1.04,0,0,1,.47.157,3.053,3.053,0,0,1,1.378,2.348.78.78,0,0,1-.219.626.683.683,0,0,1-.658-.125,3.053,3.053,0,0,1-1.378-2.348.78.78,0,0,1,.219-.626,1.109,1.109,0,0,1,.188-.031Z" transform="translate(-136.518 -268.973)"/><path class="k" d="M244.114,247.228a.454.454,0,0,0,.219-.063.488.488,0,0,0,.251-.407v-2.974a.47.47,0,1,0-.939,0v2.16l-16.625-9.8a.426.426,0,0,0-.47,0,.488.488,0,0,0-.25.407v8.892a.47.47,0,1,0,.939,0v-8.078l16.625,9.8A.966.966,0,0,0,244.114,247.228Z" transform="translate(-183.246 -195.467)"/><path class="k" d="M258.97,260.382a.482.482,0,0,0,.47-.47V250.27a.47.47,0,0,0-.939,0v9.643A.482.482,0,0,0,258.97,260.382Z" transform="translate(-208.182 -204.895)"/><path class="k" d="M208.67,179.848a.482.482,0,0,0,.47-.47V161.47a.47.47,0,1,0-.939,0v17.908A.482.482,0,0,0,208.67,179.848Z" transform="translate(-142.134 -143.897)"/><path class="k" d="M363.278,115.335a.488.488,0,0,0,.407-.25.441.441,0,0,0-.188-.626l-14.089-8.015a.463.463,0,1,0-.438.814l14.089,8.015A.454.454,0,0,0,363.278,115.335Z" transform="translate(-340.731 -106.372)"/><path class="k" d="M385.821,146.339a.454.454,0,0,0,.219-.063.488.488,0,0,0,.25-.407v-6.7a.47.47,0,1,0-.939,0v5.886L375.27,139.2a.457.457,0,0,0-.47.783l10.77,6.262A.285.285,0,0,0,385.821,146.339Z" transform="translate(-371.383 -128.579)"/><path class="k" d="M368.97,200.719a.482.482,0,0,0,.47-.47V191.17a.47.47,0,0,0-.939,0v9.079A.482.482,0,0,0,368.97,200.719Z" transform="translate(-352.621 -164.298)"/><path class="k" d="M328.019,191.384a.482.482,0,0,0,.47-.47V170.908a.451.451,0,0,0-.25-.407l-7.827-4.258a.463.463,0,1,0-.438.814l7.608,4.133v19.724a.407.407,0,0,0,.438.47Z" transform="translate(-296.392 -147.449)"/><path class="k" d="M187.744,260.667a1.424,1.424,0,0,0,.626-.157,1.531,1.531,0,0,0,.689-1.409,4.014,4.014,0,0,0-1.816-3.131,1.512,1.512,0,0,0-1.565-.125,1.531,1.531,0,0,0-.689,1.409,3.932,3.932,0,0,0,1.816,3.131A1.813,1.813,0,0,0,187.744,260.667Zm-1.44-4.1a1.152,1.152,0,0,1,.5.157,3.109,3.109,0,0,1,1.378,2.379.761.761,0,0,1-.25.657.67.67,0,0,1-.689-.125,3.109,3.109,0,0,1-1.378-2.379.761.761,0,0,1,.25-.657C186.147,256.566,186.209,256.566,186.3,256.566Z" transform="translate(-114.79 -208.937)"/><path class="k" d="M224.044,251.667a1.424,1.424,0,0,0,.626-.157,1.531,1.531,0,0,0,.689-1.409,4.014,4.014,0,0,0-1.816-3.131,1.512,1.512,0,0,0-1.565-.125,1.531,1.531,0,0,0-.689,1.409,3.932,3.932,0,0,0,1.816,3.131A1.994,1.994,0,0,0,224.044,251.667Zm-1.409-4.1a1.152,1.152,0,0,1,.5.157,3.109,3.109,0,0,1,1.378,2.379.761.761,0,0,1-.25.657.67.67,0,0,1-.689-.125,3.109,3.109,0,0,1-1.378-2.379.761.761,0,0,1,.251-.657C222.478,247.566,222.541,247.566,222.635,247.566Z" transform="translate(-162.455 -202.755)"/><path class="k" d="M205.943,222.967a1.424,1.424,0,0,0,.626-.157,1.531,1.531,0,0,0,.689-1.409,3.932,3.932,0,0,0-1.816-3.131,1.512,1.512,0,0,0-1.565-.125,1.531,1.531,0,0,0-.689,1.409A3.932,3.932,0,0,0,205,222.686a1.994,1.994,0,0,0,.939.282Zm-1.44-4.1a1.152,1.152,0,0,1,.5.157,3.109,3.109,0,0,1,1.378,2.379.761.761,0,0,1-.251.657.67.67,0,0,1-.689-.125,3.109,3.109,0,0,1-1.378-2.379.761.761,0,0,1,.25-.657A.4.4,0,0,1,204.5,218.866Z" transform="translate(-138.688 -183.041)"/><path class="k" d="M205.943,153.382a1.425,1.425,0,0,0,.626-.157,1.531,1.531,0,0,0,.689-1.409,3.932,3.932,0,0,0-1.816-3.131,1.585,1.585,0,0,0-1.565-.125,1.531,1.531,0,0,0-.689,1.409A3.932,3.932,0,0,0,205,153.1,2,2,0,0,0,205.943,153.382Zm-1.44-4.1a1.152,1.152,0,0,1,.5.157,3.109,3.109,0,0,1,1.378,2.379.761.761,0,0,1-.251.657.67.67,0,0,1-.689-.125,3.109,3.109,0,0,1-1.378-2.379.761.761,0,0,1,.25-.657C204.378,149.312,204.441,149.281,204.5,149.281Z" transform="translate(-138.688 -135.246)"/><path class="k" d="M366.444,183.168a1.425,1.425,0,0,0,.626-.157,1.531,1.531,0,0,0,.689-1.409,4.014,4.014,0,0,0-1.816-3.131,1.512,1.512,0,0,0-1.565-.125,1.531,1.531,0,0,0-.689,1.409,3.932,3.932,0,0,0,1.816,3.131A1.994,1.994,0,0,0,366.444,183.168Zm-1.44-4.1a1.153,1.153,0,0,1,.5.157,3.109,3.109,0,0,1,1.378,2.379.761.761,0,0,1-.25.657.67.67,0,0,1-.689-.125,3.109,3.109,0,0,1-1.378-2.379.761.761,0,0,1,.25-.658A.4.4,0,0,1,365,179.066Z" transform="translate(-349.438 -155.701)"/><path class="k" d="M411.943,135.682a1.425,1.425,0,0,0,.626-.157,1.531,1.531,0,0,0,.689-1.409,3.932,3.932,0,0,0-1.816-3.131,1.585,1.585,0,0,0-1.565-.125,1.531,1.531,0,0,0-.689,1.409A3.932,3.932,0,0,0,411,135.4,1.994,1.994,0,0,0,411.943,135.682Zm-1.409-4.1a1.152,1.152,0,0,1,.5.157,3.109,3.109,0,0,1,1.378,2.379.761.761,0,0,1-.25.657.67.67,0,0,1-.689-.125,3.109,3.109,0,0,1-1.378-2.379.761.761,0,0,1,.25-.657C410.378,131.581,410.441,131.581,410.535,131.581Z" transform="translate(-409.183 -123.088)"/><path class="k" d="M341.343,133.582a1.425,1.425,0,0,0,.626-.157,1.531,1.531,0,0,0,.689-1.409,3.932,3.932,0,0,0-1.816-3.131,1.585,1.585,0,0,0-1.565-.125,1.531,1.531,0,0,0-.689,1.409A3.932,3.932,0,0,0,340.4,133.3,1.9,1.9,0,0,0,341.343,133.582Zm-1.44-4.133a1.152,1.152,0,0,1,.5.157,3.109,3.109,0,0,1,1.378,2.379.761.761,0,0,1-.25.657.67.67,0,0,1-.689-.125,3.109,3.109,0,0,1-1.378-2.379.761.761,0,0,1,.25-.657C339.778,129.481,339.841,129.45,339.9,129.45Z" transform="translate(-316.479 -121.645)"/><path class="k" d="M347.644,162.067a1.425,1.425,0,0,0,.626-.157,1.531,1.531,0,0,0,.689-1.409,3.932,3.932,0,0,0-1.816-3.131,1.512,1.512,0,0,0-1.565-.125,1.531,1.531,0,0,0-.689,1.409,4.014,4.014,0,0,0,1.816,3.131A1.9,1.9,0,0,0,347.644,162.067Zm-1.44-4.1a1.152,1.152,0,0,1,.5.157,3.109,3.109,0,0,1,1.378,2.379.761.761,0,0,1-.25.658.67.67,0,0,1-.689-.125,3.109,3.109,0,0,1-1.378-2.379.761.761,0,0,1,.25-.657A.4.4,0,0,1,346.2,157.966Z" transform="translate(-324.752 -141.207)"/><path class="k" d="M258.5,272.5v8.954a.47.47,0,0,0,.939,0v-8.391Z" transform="translate(-208.182 -220.488)"/><path class="k" d="M281.5,236.6v4.947a.535.535,0,0,0,.219.407l11.96,7.076a.589.589,0,0,0,.25.063.454.454,0,0,0,.219-.063.489.489,0,0,0,.25-.407v-4.446l-.939-.564v4.164l-11.021-6.512v-4.133Z" transform="translate(-250.343 -195.828)"/><path class="k" d="M286.979,276.527a.482.482,0,0,0,.47-.47V269.42a.535.535,0,0,0-.219-.407l-11.49-6.7V255.77a.47.47,0,1,0-.939,0v6.794a.535.535,0,0,0,.219.407l11.49,6.7v6.356A.488.488,0,0,0,286.979,276.527Z" transform="translate(-241.295 -208.673)"/><path class="k" d="M256.175,303.729a1.564,1.564,0,0,0,.657-.157,1.584,1.584,0,0,0,.689-1.44,3.973,3.973,0,0,0-1.847-3.162,1.565,1.565,0,0,0-1.6-.125,1.584,1.584,0,0,0-.689,1.44,3.973,3.973,0,0,0,1.847,3.162A1.9,1.9,0,0,0,256.175,303.729Zm-1.44-4.1a1.039,1.039,0,0,1,.47.157,3.053,3.053,0,0,1,1.378,2.348.78.78,0,0,1-.219.626.683.683,0,0,1-.657-.125,3.052,3.052,0,0,1-1.378-2.348.78.78,0,0,1,.219-.626.4.4,0,0,1,.188-.031Z" transform="translate(-204.667 -238.474)"/><path class="k" d="M352.275,256.629a1.566,1.566,0,0,0,.657-.157,1.584,1.584,0,0,0,.689-1.44,3.973,3.973,0,0,0-1.847-3.162,1.565,1.565,0,0,0-1.6-.125,1.584,1.584,0,0,0-.689,1.44,3.973,3.973,0,0,0,1.847,3.162A1.731,1.731,0,0,0,352.275,256.629Zm-1.44-4.1a1.04,1.04,0,0,1,.47.157,3.053,3.053,0,0,1,1.378,2.348.78.78,0,0,1-.219.626.683.683,0,0,1-.657-.125,3.053,3.053,0,0,1-1.378-2.348.78.78,0,0,1,.219-.626C350.678,252.528,350.741,252.528,350.835,252.528Z" transform="translate(-330.855 -206.12)"/><path class="k" d="M359.8,210.492v6.982a.488.488,0,0,0,.25.407L370.48,223.8a.579.579,0,0,0,.219.063.488.488,0,0,0,.407-.25.482.482,0,0,0-.188-.657l-10.206-5.792v-5.886l7.013,4.133a.426.426,0,0,0,.47,0,.488.488,0,0,0,.25-.407v-6.293l-.689-.407a.42.42,0,0,0-.25.407v5.448l-7.013-4.133a.426.426,0,0,0-.47,0A.805.805,0,0,0,359.8,210.492Z" transform="translate(-351.627 -176.388)"/></g></g><path class="p" d="M2442.55,396.8,2388.3,363.587v11.382l54.251,33.248Z" transform="translate(-916.817 103.252)"/></g></svg>