<?xml version="1.0" encoding="utf-8"?>
<!-- Generator: Adobe Illustrator 22.1.0, SVG Export Plug-In . SVG Version: 6.00 Build 0)  -->
<svg version="1.1" id="Layer_1" xmlns="http://www.w3.org/2000/svg" xmlns:xlink="http://www.w3.org/1999/xlink" x="0px" y="0px"
	 viewBox="0 0 938.8 866.8" style="enable-background:new 0 0 938.8 866.8;" xml:space="preserve">
<style type="text/css">
	.st0{clip-path:url(#SVGID_2_);fill:#CFEBFF;}
	.st1{opacity:0.5;}
	.st2{fill:none;}
	.st3{fill:#7A80FF;}
</style>
<g>
	<g>
		<g>
			<defs>
				
					<rect id="SVGID_1_" x="11.4" y="14.7" transform="matrix(0.9981 -6.193832e-02 6.193832e-02 0.9981 -25.0184 23.8945)" width="722.9" height="801.7"/>
			</defs>
			<clipPath id="SVGID_2_">
				<use xlink:href="#SVGID_1_"  style="overflow:visible;"/>
			</clipPath>
			<path class="st0" d="M653,115.7c-23.8-18.9-73.5-4.4-103.5-31c-30-26.6-188.8-159.4-325.8,24.1c-42.5,56.9-48.9,96.4-113.1,104.2
				c-47.6,5.8-162,103.3-67.5,239.2C105,540.9,95,579.6,86,645.4c-8.9,65.7,61.5,285.6,293,119.8c124.7-89.3,394-215.7,347.1-451.6
				C692.3,143.8,678.1,135.5,653,115.7z"/>
		</g>
	</g>
</g>
<g class="st1">
	<path class="st2" d="M456,291.9L590.5,16.6c-5.3,2-10.7,4.2-16.2,6.7L445.3,287.4C448.7,288.8,452.3,290.4,456,291.9z"/>
	<path class="st2" d="M510.6,309.2L660.4,2.7c-4.2-0.3-8.6-0.3-12.8-0.2L499,306.2C502.9,307.2,506.7,308.2,510.6,309.2z"/>
	<path class="st2" d="M586.6,325.8L732,28c-3.3-2-6.7-4-10.1-5.8L575.2,322.4C579,323.5,582.8,324.6,586.6,325.8z"/>
	<path class="st2" d="M406.5,263.9L506.8,58.7c-6.4,3.9-12.6,7.8-18.8,11.9l-90.4,185C400.4,258.5,403.4,261.2,406.5,263.9z"/>
	<path class="st2" d="M438.6,284.5L564,27.8c-5.7,2.7-11.4,5.5-17.1,8.4l-118.7,243C432.3,281.5,435.9,283.3,438.6,284.5z"/>
	<path class="st2" d="M379.3,220.2c0.4,3.1,1.1,6.1,2,9.1L443,102.9c-1.3,1.1-2.8,2.1-4.1,3.2c-7.4,6.2-14,12.9-20.2,20.1l-39.6,81
		C378.7,211.7,378.8,216,379.3,220.2z"/>
	<path class="st2" d="M562.5,319.2c1.9,0.4,3.7,0.9,5.6,1.3L715.5,18.9c-3.6-1.8-7-3.3-10.6-4.9L556.3,318.3
		C558.4,318.6,560.5,318.8,562.5,319.2z"/>
	<path class="st2" d="M389.4,245.5L389.4,245.5c0.1,0.3,0.3,0.6,0.6,0.8c0.8,1.1,1.7,2.2,2.6,3.3L476,78.7
		c-6.8,4.7-13.4,9.5-20,14.3l-71,145.2C386.4,240.7,387.8,243.1,389.4,245.5z"/>
	<path class="st2" d="M529.5,313.5L679.9,5.7c-3.9-0.9-7.9-1.7-11.8-2.2L517.8,310.9C521.7,311.8,525.6,312.7,529.5,313.5z"/>
	<path class="st2" d="M604.3,332.4L748,38.5c-3.2-2.3-6.5-4.6-9.7-6.7L593.4,328.2C597.1,329.5,600.7,331,604.3,332.4z"/>
	<path class="st2" d="M473.7,298.5L615.7,8c-5,1.4-10.1,3.1-15.4,4.9L462.7,294.5C466.3,296,470,297.2,473.7,298.5z"/>
	<path class="st2" d="M492,304.2L639.1,3.1c-4.1,0.4-8.1,1.1-12.3,2c-0.7,0.1-1.3,0.3-1.9,0.4L480.7,300.8
		C484.4,302,488.2,303.1,492,304.2z"/>
	<path class="st2" d="M548.8,317L698.2,11.3c-3.7-1.3-7.5-2.7-11.1-3.7L536.9,314.9C540.9,315.7,544.9,316.4,548.8,317z"/>
	<path class="st2" d="M422,275.2L536.1,41.9c-5.9,3.2-11.9,6.6-17.8,10L412.5,268.4C415.7,271,419,273.4,422,275.2z"/>
	<path class="st2" d="M795.4,500.9l115.9-237.2c-1.8-5.1-3.7-10.1-5.6-15L784.8,495.9C788.2,497.8,791.8,499.5,795.4,500.9z"/>
	<path class="st2" d="M813.9,506.1l105.5-216c-1.6-5.5-3.2-11-4.9-16.4L802.1,503.4C806.1,504.5,810,505.4,813.9,506.1z"/>
	<path class="st2" d="M778.5,492.3L902,239.7c-2-4.8-4-9.5-6-14.2l-127.1,260C772.1,487.9,775.3,490.2,778.5,492.3z"/>
	<path class="st2" d="M763,480.9l129-263.8l0,0c-2.1-4.6-4.2-8.9-6.5-13.3L754,473C757,475.6,760,478.3,763,480.9z"/>
	<path class="st2" d="M834.9,506l91.3-186.8c-1.1-6.1-2.5-12.3-4-18.3l-100.6,206C826,506.9,830.3,506.6,834.9,506z"/>
	<path class="st2" d="M748.5,467.6l132.9-271.8c-2.2-4.3-4.6-8.5-6.8-12.5L740,458.6C742.7,461.7,745.6,464.7,748.5,467.6z"/>
	<path class="st2" d="M872.9,490.4c7.5-5.2,14-10.9,20-16.9l35.9-73.3c1.7-10.3,2.6-20.8,2.6-31.7l-60.2,123.2
		C871.7,491.2,872.3,490.8,872.9,490.4z"/>
	<path class="st2" d="M859.9,497.9L930.7,353c-0.4-7.2-1.2-14.5-2.3-21.7L843.9,504C849.2,502.6,854.4,500.6,859.9,497.9z"/>
	<path class="st2" d="M734.7,452.8l135.4-277.2c-1.2-2-2.3-4-3.6-6c-1.2-1.9-2.5-3.8-3.7-5.6L726.5,443.1
		C729.3,446.4,731.9,449.7,734.7,452.8z"/>
	<path class="st2" d="M695.6,403.9L833,122.7c-2.7-3.3-5.3-6.7-8-10L687.6,393.7C690.1,397.1,692.8,400.4,695.6,403.9z"/>
	<path class="st2" d="M668.6,372.9L806.3,91.2c-2.8-3-5.7-6.1-8.5-9L659.6,365.1C662.6,367.5,665.7,370.1,668.6,372.9z"/>
	<path class="st2" d="M638,349.6L778.1,63c-3-2.7-6-5.3-9-8L627.8,343.8C631.3,345.7,634.6,347.6,638,349.6z"/>
	<path class="st2" d="M621.5,340.3L763.3,50.2c-3.1-2.6-6.2-5-9.4-7.4L611,335.3C614.6,336.9,618,338.6,621.5,340.3z"/>
	<path class="st2" d="M675.2,379c2.5,2.7,4.9,5.6,7.4,8.6l137.3-281.1c-2.7-3.2-5.5-6.5-8.2-9.6L674.2,378
		C674.5,378.3,674.9,378.7,675.2,379z"/>
	<path class="st2" d="M721.5,437l136.8-279.9c-2.5-3.7-5-7.2-7.6-10.9L713.4,426.9C716,430.3,718.7,433.6,721.5,437z"/>
	<path class="st2" d="M708.4,420.6l137.3-281.1c-2.6-3.5-5.1-7-7.8-10.5L700.5,410.3C703.1,413.7,705.7,417.1,708.4,420.6z"/>
	<path class="st2" d="M653.7,360.5L792.3,76.6c-2.9-2.9-5.8-5.8-8.8-8.6L644.1,353.6C647.3,355.8,650.6,358.1,653.7,360.5z"/>
	<path class="st3" d="M871,491.6l60.2-123.2c0-5.1-0.2-10.3-0.6-15.5l-70.8,144.9C863.6,496.2,867.2,494,871,491.6z"/>
	<path class="st3" d="M784.8,495.9l120.8-247.2c-1.2-3-2.5-6.1-3.7-9L778.5,492.3C780.6,493.6,782.6,494.8,784.8,495.9z"/>
	<path class="st3" d="M821.5,506.7l100.6-206c-0.9-3.6-1.8-7.1-2.8-10.7l-105.5,216C816.4,506.4,819,506.6,821.5,506.7z"/>
	<path class="st3" d="M754,472.9l131.5-269.2c-1.3-2.7-2.8-5.3-4.1-8l-132.9,272C750.3,469.4,752.2,471.2,754,472.9z"/>
	<path class="st3" d="M726.5,443.1L862.9,164c-1.6-2.3-3.1-4.6-4.7-6.9L721.5,437C723.1,439.1,724.8,441.1,726.5,443.1z"/>
	<path class="st3" d="M674.2,378L811.5,97c-1.8-1.9-3.5-3.9-5.2-5.8L668.6,372.9C670.5,374.6,672.4,376.2,674.2,378z"/>
	<path class="st3" d="M700.5,410.3L837.9,129c-1.7-2.1-3.3-4.2-4.9-6.4L695.6,403.9C697.2,406,698.8,408.1,700.5,410.3z"/>
	<path class="st3" d="M644.1,353.6L783.6,68.2c-1.9-1.8-3.7-3.5-5.6-5.1L638,349.6C640,350.9,642.1,352.3,644.1,353.6z"/>
	<path class="st3" d="M611,335.3L753.9,42.9c-2-1.4-3.9-2.9-5.9-4.3L604.3,332.4C606.5,333.3,608.8,334.3,611,335.3z"/>
	<path class="st3" d="M536.9,314.9L687,7.6c-2.3-0.7-4.8-1.3-7.1-1.9L529.5,313.5C532,313.9,534.4,314.5,536.9,314.9z"/>
	<path class="st3" d="M575.2,322.4L721.9,22.2c-2.1-1.1-4.2-2.2-6.5-3.3L568.1,320.5C570.5,321.1,572.9,321.7,575.2,322.4z"/>
	<path class="st3" d="M494.9,305.1c1.3,0.3,2.8,0.8,4.1,1.1L647.4,2.5c-2.8,0.1-5.6,0.3-8.4,0.7L492,304.3
		C493,304.6,493.9,304.8,494.9,305.1z"/>
	<path class="st3" d="M928.7,400.2l-35.9,73.3C913,452.7,924.1,427.5,928.7,400.2z"/>
	<path class="st3" d="M802.1,503.4l112.2-229.8c-1.1-3.2-2.1-6.6-3.3-9.8L795.1,500.9C797.6,501.8,799.9,502.7,802.1,503.4z"/>
	<path class="st3" d="M843.9,504.1l84.4-172.6c-0.6-4.1-1.3-8.1-2.1-12.3L834.9,506C837.9,505.5,840.9,504.8,843.9,504.1z"/>
	<path class="st3" d="M768.8,485.6l127.1-260c-1.3-2.9-2.6-5.7-3.9-8.5L763,480.9C764.9,482.6,766.9,484,768.8,485.6z"/>
	<path class="st3" d="M740,458.6l134.5-275.4c-1.4-2.6-2.9-5.1-4.3-7.6L734.7,452.8C736.5,454.8,738.2,456.7,740,458.6z"/>
	<path class="st3" d="M687.6,393.7l137.3-281.1c-1.7-2-3.3-4-5.1-6.1L682.6,387.6C684.2,389.6,685.9,391.6,687.6,393.7z"/>
	<path class="st3" d="M713.4,426.9l137.2-280.8c-1.6-2.2-3.2-4.5-4.8-6.7L708.4,420.6C710.1,422.7,711.8,424.8,713.4,426.9z"/>
	<path class="st3" d="M659.5,365.1L797.7,82.2c-1.8-1.9-3.6-3.7-5.3-5.5L653.7,360.5C655.7,362,657.6,363.5,659.5,365.1z"/>
	<path class="st3" d="M623.8,341.6c1.3,0.7,2.7,1.4,4,2.2L768.9,55c-1.9-1.7-3.8-3.2-5.7-4.8L621.5,340.3
		C622.3,340.8,623,341.1,623.8,341.6z"/>
	<path class="st3" d="M556.3,318.3L705,14c-2.2-1-4.5-1.8-6.8-2.7L548.8,317C551.3,317.5,553.8,317.8,556.3,318.3z"/>
	<path class="st3" d="M593.4,328.2L738.2,31.9c-2-1.3-4.1-2.7-6.1-3.9L586.6,325.8C588.8,326.5,591.2,327.4,593.4,328.2z"/>
	<path class="st3" d="M517.8,310.9L668,3.5c-2.6-0.3-5.1-0.7-7.7-0.9L510.5,309.1C512.9,309.8,515.4,310.4,517.8,310.9z"/>
	<path class="st3" d="M480.7,300.8L624.9,5.6c-3,0.8-6.1,1.6-9.3,2.5l-142,290.5C476,299.3,478.4,300.1,480.7,300.8z"/>
	<path class="st3" d="M443.7,286.6L443.7,286.6c0.4,0.2,1,0.4,1.6,0.7L574.3,23.1c-3.5,1.4-6.9,3-10.4,4.7L438.6,284.5
		C441.8,285.9,443.7,286.6,443.7,286.6z"/>
	<path class="st3" d="M462.7,294.5L600.3,12.9c-3.2,1.1-6.6,2.3-9.8,3.6L456,291.9C458.2,292.9,460.4,293.6,462.7,294.5z"/>
	<path class="st3" d="M428.2,279.1l118.7-243c-3.6,1.9-7.2,3.8-10.8,5.7L422,275.2C424.2,276.7,426.2,278,428.2,279.1z"/>
	<path class="st3" d="M412.1,268.2c0.1,0.1,0.2,0.1,0.3,0.2L518.2,51.9c-3.8,2.2-7.6,4.5-11.4,6.8L406.5,263.9
		C408.3,265.3,410.2,266.8,412.1,268.2z"/>
	<path class="st3" d="M385.1,238.2l71-145.2c-4.3,3.2-8.7,6.6-12.9,9.8l-61.7,126.4C382.4,232.3,383.6,235.3,385.1,238.2z"/>
	<path class="st3" d="M397.6,255.6l90.4-185c-4,2.7-8,5.3-12,8.1l-83.5,171C394,251.7,395.8,253.6,397.6,255.6z"/>
	<path class="st3" d="M379.2,207.3l39.6-81c-13.8,15.9-24.4,33.8-30.8,52.9C382.9,189.1,380.1,198.5,379.2,207.3z"/>
</g>
</svg>
