<svg xmlns="http://www.w3.org/2000/svg" xmlns:xlink="http://www.w3.org/1999/xlink" width="1737" height="1401" viewBox="0 0 1737 1401"><defs><style>.a,.p{fill:none;}.b,.q{fill:#fff;}.c{clip-path:url(#p);}.d{opacity:0.496;}.e{clip-path:url(#a);}.f{fill:#cfebff;}.g{opacity:0.082;}.h{fill:#2f476c;}.i{opacity:0.204;}.j,.u{opacity:0.509;}.j{fill:url(#b);}.k{opacity:0.271;fill:url(#c);}.l{fill:url(#d);}.m{fill:url(#e);}.n{fill:url(#f);}.o{fill:url(#g);}.p,.q{stroke:#fff;}.p{mix-blend-mode:soft-light;}.p,.q,.w{isolation:isolate;}.q{stroke-linecap:round;stroke-linejoin:round;mix-blend-mode:overlay;}.r{clip-path:url(#h);}.s{fill:url(#i);}.t{opacity:0.701;fill:url(#l);}.u{fill:url(#m);}.v{fill:url(#n);}.w{fill:#1ea1f1;mix-blend-mode:multiply;}.x{filter:url(#j);}</style><clipPath id="a"><rect width="722.9" height="801.7" transform="matrix(0.998, -0.062, 0.062, 0.998, -12.73, 37.86)"/></clipPath><linearGradient id="b" x1="0.951" y1="0.949" x2="0.021" y2="0.017" gradientUnits="objectBoundingBox"><stop offset="0" stop-color="#093553" stop-opacity="0"/><stop offset="1" stop-color="#093553"/></linearGradient><linearGradient id="c" x1="0.029" y1="0.979" x2="0.751" y2="0.247" xlink:href="#b"/><linearGradient id="d" x1="0.714" y1="0.301" x2="0.708" y2="0.804" gradientUnits="objectBoundingBox"><stop offset="0" stop-color="#093553"/><stop offset="1" stop-color="#1ea1f1"/></linearGradient><linearGradient id="e" x1="0.485" y1="0.737" x2="1.294" y2="0.314" gradientUnits="objectBoundingBox"><stop offset="0" stop-color="#1988cc"/><stop offset="1"/></linearGradient><radialGradient id="f" cx="0.509" cy="0.5" r="0.373" gradientTransform="matrix(0.428, 0.904, -0.693, 0.328, 0.638, -0.124)" gradientUnits="objectBoundingBox"><stop offset="0" stop-color="#03111a"/><stop offset="1" stop-color="#03121c" stop-opacity="0"/></radialGradient><linearGradient id="g" x1="0.5" y1="0.185" x2="0.573" y2="0.812" gradientUnits="objectBoundingBox"><stop offset="0" stop-color="#005fa0"/><stop offset="1" stop-color="#6ac1f7"/></linearGradient><clipPath id="h"><rect class="b" width="152" height="139" transform="translate(193 409)"/></clipPath><linearGradient id="i" x1="0.338" y1="0.936" x2="0.661" y2="-0.096" gradientUnits="objectBoundingBox"><stop offset="0" stop-color="#f8ab1d"/><stop offset="1" stop-color="#7c560f"/></linearGradient><filter id="j" x="362" y="462" width="153" height="155.639" filterUnits="userSpaceOnUse"><feOffset dx="10" dy="3" input="SourceAlpha"/><feGaussianBlur stdDeviation="5" result="k"/><feFlood flood-color="#093553" flood-opacity="0.537"/><feComposite operator="in" in2="k"/><feComposite in="SourceGraphic"/></filter><linearGradient id="l" x1="0.029" y1="0.979" x2="0.944" y2="0.051" xlink:href="#b"/><linearGradient id="m" x1="0.591" y1="0.586" x2="0.021" y2="0.017" xlink:href="#b"/><linearGradient id="n" x1="0.5" x2="0.5" y2="1" gradientUnits="objectBoundingBox"><stop offset="0" stop-color="#d1eeff"/><stop offset="1" stop-color="#1ea1f1"/></linearGradient><clipPath id="p"><rect width="1737" height="1401"/></clipPath></defs><g id="o" class="c"><g transform="translate(190.729 30.916)"><g class="d" transform="translate(-178 99)"><g class="e"><path class="f" d="M653,115.7c-23.8-18.9-73.5-4.4-103.5-31S360.7-74.7,223.7,108.8c-42.5,56.9-48.9,96.4-113.1,104.2C63,218.8-51.4,316.3,43.1,452.2,105,540.9,95,579.6,86,645.4,77.1,711.1,147.5,931,379,765.2c124.7-89.3,394-215.7,347.1-451.6C692.3,143.8,678.1,135.5,653,115.7Z"/></g></g><g class="g" transform="translate(-169.147 687.44)"><path class="a" d="M579.8,16.6,445.3,291.9c5.3-2,10.7-4.2,16.2-6.7l129-264.1C587.1,19.7,583.5,18.1,579.8,16.6Z" transform="translate(-98.4 324.025)"/><path class="a" d="M648.8,2.44,499,308.94c4.2.3,8.6.3,12.8.2L660.4,5.44C656.5,4.44,652.7,3.44,648.8,2.44Z" transform="translate(-222 320.885)"/><path class="a" d="M720.6,22.2,575.2,320c3.3,2,6.7,4,10.1,5.8L732,25.6C728.2,24.5,724.4,23.4,720.6,22.2Z" transform="translate(-370.8 282.525)"/><path class="a" d="M497.9,58.7,397.6,263.9c6.4-3.9,12.6-7.8,18.8-11.9L506.8,67C504,64.1,501,61.4,497.9,58.7Z" transform="translate(33 309.925)"/><path class="a" d="M553.6,27.8,428.2,284.5q8.55-4.05,17.1-8.4L564,33.1C559.9,30.8,556.3,29,553.6,27.8Z" transform="translate(-54.8 320.225)"/><path class="a" d="M442.553,112a56.855,56.855,0,0,0-2-9.1l-61.7,126.4c1.3-1.1,2.8-2.1,4.1-3.2a174.331,174.331,0,0,0,20.2-20.1l39.6-81A62.451,62.451,0,0,0,442.553,112Z" transform="translate(115.547 267.457)"/><path class="a" d="M709.3,15.3c-1.9-.4-3.7-.9-5.6-1.3L556.3,315.6c3.6,1.8,7,3.3,10.6,4.9L715.5,16.2C713.4,15.9,711.3,15.7,709.3,15.3Z" transform="translate(-334.4 298.025)"/><path class="a" d="M471.6,82.8h0a1.555,1.555,0,0,0-.6-.8c-.8-1.1-1.7-2.2-2.6-3.3L385,249.6c6.8-4.7,13.4-9.5,20-14.3L476,90.1C474.6,87.6,473.2,85.2,471.6,82.8Z" transform="translate(76.4 275.944)"/><path class="a" d="M668.2,3.5,517.8,311.3c3.9.9,7.9,1.7,11.8,2.2L679.9,6.1C676,5.2,672.1,4.3,668.2,3.5Z" transform="translate(-260.3 315.525)"/><path class="a" d="M737.1,31.8,593.4,325.7c3.2,2.3,6.5,4.6,9.7,6.7L748,36C744.3,34.7,740.7,33.2,737.1,31.8Z" transform="translate(-405 266.325)"/><path class="a" d="M604.7,8l-142,290.5c5-1.4,10.1-3.1,15.4-4.9L615.7,12C612.1,10.5,608.4,9.3,604.7,8Z" transform="translate(-141 326.025)"/><path class="a" d="M627.8,3.1,480.7,304.2a108.49,108.49,0,0,0,12.3-2c.7-.1,1.3-.3,1.9-.4L639.1,6.5C635.4,5.3,631.6,4.2,627.8,3.1Z" transform="translate(-182.4 325.225)"/><path class="a" d="M686.3,7.6,536.9,313.3c3.7,1.3,7.5,2.7,11.1,3.7L698.2,9.7C694.2,8.9,690.2,8.2,686.3,7.6Z" transform="translate(-297.7 307.925)"/><path class="a" d="M526.6,41.9,412.5,275.2c5.9-3.2,11.9-6.6,17.8-10L536.1,48.7A85.146,85.146,0,0,0,526.6,41.9Z" transform="translate(-11.2 315.425)"/><path class="a" d="M900.7,248.7,784.8,485.9c1.8,5.1,3.7,10.1,5.6,15L911.3,253.7A85.278,85.278,0,0,0,900.7,248.7Z" transform="translate(-764.7 -242.7)"/><path class="a" d="M907.6,273.7l-105.5,216c1.6,5.5,3.2,11,4.9,16.4L919.4,276.4C915.4,275.3,911.5,274.4,907.6,273.7Z" transform="translate(-790.1 -272.9)"/><path class="a" d="M892.4,225.5,768.9,478.1c2,4.8,4,9.5,6,14.2L902,232.3C898.8,229.9,895.6,227.6,892.4,225.5Z" transform="translate(-739.5 -210.9)"/><path class="a" d="M883,203.8,754,467.6h0c2.1,4.6,4.2,8.9,6.5,13.3L892,211.7C889,209.1,886,206.4,883,203.8Z" transform="translate(-714.6 -177.8)"/><path class="a" d="M912.9,301.8,821.6,488.6c1.1,6.1,2.5,12.3,4,18.3l100.6-206A101.328,101.328,0,0,0,912.9,301.8Z" transform="translate(-816.4 -300.9)"/><path class="a" d="M872.9,183.3,740,455.1c2.2,4.3,4.6,8.5,6.8,12.5L881.4,192.3C878.7,189.2,875.8,186.2,872.9,183.3Z" transform="translate(-690 -144)"/><path class="a" d="M929.7,369.8a144.967,144.967,0,0,0-20,16.9L873.8,460a193.732,193.732,0,0,0-2.6,31.7l60.2-123.2A10.915,10.915,0,0,1,929.7,369.8Z" transform="translate(-871.2 -353.3)"/><path class="a" d="M914.7,337.4,843.9,482.3c.4,7.2,1.2,14.5,2.3,21.7l84.5-172.7A85.619,85.619,0,0,0,914.7,337.4Z" transform="translate(-843.2 -328.4)"/><path class="a" d="M861.9,164,726.5,441.2c1.2,2,2.3,4,3.6,6,1.2,1.9,2.5,3.8,3.7,5.6L870.1,173.7C867.3,170.4,864.7,167.1,861.9,164Z" transform="translate(-665.2 -109.9)"/><path class="a" d="M825,112.7,687.6,393.9c2.7,3.3,5.3,6.7,8,10L833,122.9C830.5,119.5,827.8,116.2,825,112.7Z" transform="translate(-589.2 49.948)"/><path class="a" d="M797.3,82.2,659.6,363.9c2.8,3,5.7,6.1,8.5,9L806.3,90C803.3,87.6,800.2,85,797.3,82.2Z" transform="translate(-534.5 129.254)"/><path class="a" d="M767.9,55,627.8,341.6c3,2.7,6,5.3,9,8L778.1,60.8C774.6,58.9,771.3,57,767.9,55Z" transform="translate(-474.5 225.925)"/><path class="a" d="M752.8,42.8,611,332.9c3.1,2.6,6.2,5,9.4,7.4L763.3,47.8C759.7,46.2,756.3,44.5,752.8,42.8Z" transform="translate(-437.9 247.425)"/><path class="a" d="M818.9,105.5c-2.5-2.7-4.9-5.6-7.4-8.6L674.2,378c2.7,3.2,5.5,6.5,8.2,9.6L819.9,106.5Z" transform="translate(-562.7 91.344)"/><path class="a" d="M850.2,146.2,713.4,426.1c2.5,3.7,5,7.2,7.6,10.9L858.3,156.3C855.7,152.9,853,149.6,850.2,146.2Z" transform="translate(-640.3 -76.3)"/><path class="a" d="M837.8,129,700.5,410.1c2.6,3.5,5.1,7,7.8,10.5L845.7,139.3C843.1,135.9,840.5,132.5,837.8,129Z" transform="translate(-614.8 7.352)"/><path class="a" d="M782.7,68,644.1,351.9c2.9,2.9,5.8,5.8,8.8,8.6L792.3,74.9C789.1,72.7,785.8,70.4,782.7,68Z" transform="translate(-505 202.025)"/><path class="h" d="M920,359.1,859.8,482.3c0,5.1.2,10.3.6,15.5l70.8-144.9A78.143,78.143,0,0,0,920,359.1Z" transform="translate(-859.6 -343.8)"/><path class="h" d="M899.3,239.7,778.5,486.9c1.2,3,2.5,6.1,3.7,9L905.6,243.3C903.5,242,901.5,240.8,899.3,239.7Z" transform="translate(-752.7 -228.7)"/><path class="h" d="M914.4,290,813.8,496c.9,3.6,1.8,7.1,2.8,10.7l105.5-216A68.828,68.828,0,0,0,914.4,290Z" transform="translate(-804.5 -289.8)"/><path class="h" d="M880,195.7,748.5,464.9c1.3,2.7,2.8,5.3,4.1,8l132.9-272C883.7,199.2,881.8,197.4,880,195.7Z" transform="translate(-702.6 -161.7)"/><path class="h" d="M857.9,157.1,721.5,436.2c1.6,2.3,3.1,4.6,4.7,6.9L862.9,163.2C861.3,161.1,859.6,159.1,857.9,157.1Z" transform="translate(-653 -93.3)"/><path class="h" d="M805.9,91.2l-137.3,281c1.8,1.9,3.5,3.9,5.2,5.8L811.5,96.3C809.6,94.6,807.7,93,805.9,91.2Z" transform="translate(-549.7 108.865)"/><path class="h" d="M805.9,91.2l-137.3,281c1.8,1.9,3.5,3.9,5.2,5.8L811.5,96.3C809.6,94.6,807.7,93,805.9,91.2Z" transform="translate(-544.7 135.865)"/><path class="h" d="M805.9,91.2l-137.3,281c1.8,1.9,3.5,3.9,5.2,5.8L811.5,96.3C809.6,94.6,807.7,93,805.9,91.2Z" transform="translate(-539.7 165.865)"/><path class="h" d="M833,122.6,695.6,403.9c1.7,2.1,3.3,4.2,4.9,6.4L837.9,129C836.3,126.9,834.7,124.8,833,122.6Z" transform="translate(-602.1 15.031)"/><path class="h" d="M777.5,63.1,638,348.5c1.9,1.8,3.7,3.5,5.6,5.1l140-286.5C781.6,65.8,779.5,64.4,777.5,63.1Z" transform="translate(-483.2 215.825)"/><path class="h" d="M747.2,38.6,604.3,331c2,1.4,3.9,2.9,5.9,4.3L753.9,41.5C751.7,40.6,749.4,39.6,747.2,38.6Z" transform="translate(-420.8 258.625)"/><path class="h" d="M679.6,5.7,529.5,313c2.3.7,4.8,1.3,7.1,1.9L687,7.1C684.5,6.7,682.1,6.1,679.6,5.7Z" transform="translate(-279.1 311.925)"/><path class="h" d="M714.8,18.9,568.1,319.1c2.1,1.1,4.2,2.2,6.5,3.3L721.9,20.8C719.5,20.2,717.1,19.6,714.8,18.9Z" transform="translate(-352.6 291.225)"/><path class="h" d="M644.5,3.6c-1.3-.3-2.8-.8-4.1-1.1L492,306.2a79.271,79.271,0,0,0,8.4-.7L647.4,4.4C646.4,4.1,645.5,3.9,644.5,3.6Z" transform="translate(-202 323.825)"/><path class="h" d="M892.8,473.5l35.9-73.3C908.5,421,897.4,446.2,892.8,473.5Z" transform="translate(-890.1 -366.8)"/><path class="h" d="M907.3,263.8,795.1,493.6c1.1,3.2,2.1,6.6,3.3,9.8L914.3,266.3C911.8,265.4,909.5,264.5,907.3,263.8Z" transform="translate(-778 -260.3)"/><path class="h" d="M919.3,321.1,834.9,493.7c.6,4.1,1.3,8.1,2.1,12.3l91.3-186.8C925.3,319.7,922.3,320.4,919.3,321.1Z" transform="translate(-831.8 -318.3)"/><path class="h" d="M890.1,217.1,763,477.1c1.3,2.9,2.6,5.7,3.9,8.5l129-263.8C894,220.1,892,218.7,890.1,217.1Z" transform="translate(-727.5 -195.8)"/><path class="h" d="M869.2,175.6,734.7,451c1.4,2.6,2.9,5.1,4.3,7.6L874.5,181.4C872.7,179.4,871,177.5,869.2,175.6Z" transform="translate(-677.8 -127.3)"/><path class="h" d="M819.9,106.5,682.6,387.6c1.7,2,3.3,4,5.1,6.1L824.9,112.6C823.3,110.6,821.6,108.6,819.9,106.5Z" transform="translate(-573.1 74.058)"/><path class="h" d="M819.9,106.5,682.6,387.6c1.7,2,3.3,4,5.1,6.1L824.9,112.6C823.3,110.6,821.6,108.6,819.9,106.5Z" transform="translate(-581.1 51.058)"/><path class="h" d="M845.6,139.4,708.4,420.2c1.6,2.2,3.2,4.5,4.8,6.7L850.6,145.7C848.9,143.6,847.2,141.5,845.6,139.4Z" transform="translate(-624.6 -22.888)"/><path class="h" d="M845.6,139.4,708.4,420.2c1.6,2.2,3.2,4.5,4.8,6.7L850.6,145.7C848.9,143.6,847.2,141.5,845.6,139.4Z" transform="translate(-632.6 -49.888)"/><path class="h" d="M791.9,76.7,653.7,359.6c1.8,1.9,3.6,3.7,5.3,5.5L797.7,81.3C795.7,79.8,793.8,78.3,791.9,76.7Z" transform="translate(-513 193.725)"/><path class="h" d="M766.6,52.4c-1.3-.7-2.7-1.4-4-2.2L621.5,339c1.9,1.7,3.8,3.2,5.7,4.8L768.9,53.7C768.1,53.2,767.4,52.9,766.6,52.4Z" transform="translate(-453 238.525)"/><path class="h" d="M697.5,11.3,548.8,315.6c2.2,1,4.5,1.8,6.8,2.7L705,12.6C702.5,12.1,700,11.8,697.5,11.3Z" transform="translate(-316.4 302.925)"/><path class="h" d="M731.4,28,586.6,324.3c2,1.3,4.1,2.7,6.1,3.9L738.2,30.4C736,29.7,733.6,28.8,731.4,28Z" transform="translate(-387.4 276.325)"/><path class="h" d="M660.7,2.6,510.5,310c2.6.3,5.1.7,7.7.9L668,4.4C665.6,3.7,663.1,3.1,660.7,2.6Z" transform="translate(-241.1 319.025)"/><path class="h" d="M617.8,5.6,473.6,300.8c3-.8,6.1-1.6,9.3-2.5L624.9,7.8C622.5,7.1,620.1,6.3,617.8,5.6Z" transform="translate(-161.1 326.125)"/><path class="h" d="M569.2,23.8h0c-.4-.2-1-.4-1.6-.7l-129,264.2c3.5-1.4,6.9-3,10.4-4.7L574.3,25.9C571.1,24.5,569.2,23.8,569.2,23.8Z" transform="translate(-75.5 322.125)"/><path class="h" d="M593.6,12.9,456,294.5c3.2-1.1,6.6-2.3,9.8-3.6L600.3,15.5C598.1,14.5,595.9,13.8,593.6,12.9Z" transform="translate(-118.9 325.125)"/><path class="h" d="M540.7,36.1,422,279.1l10.8-5.7L546.9,40C544.7,38.5,542.7,37.2,540.7,36.1Z" transform="translate(-31.5 317.325)"/><path class="h" d="M512.6,52.1c-.1-.1-.2-.1-.3-.2L406.5,268.4c3.8-2.2,7.6-4.5,11.4-6.8L518.2,56.4C516.4,55,514.5,53.5,512.6,52.1Z" transform="translate(12.7 312.225)"/><path class="h" d="M482.9,70.6l-90.4,185c4-2.7,8-5.3,12-8.1L488,76.5C486.5,74.5,484.7,72.6,482.9,70.6Z" transform="translate(56.9 306.325)"/><path class="h" d="M446.2,126.3l-67,132.817c23.348-26.072,41.283-55.423,52.111-86.741C439.94,156.143,444.677,140.73,446.2,126.3Z" transform="translate(106 266.748)"/></g><g class="i" transform="translate(3.566 135.458) rotate(-45)"><path class="a" d="M449.541,125.713,502.849,16.6c-2.1.793-4.241,1.665-6.421,2.655L445.3,123.929C446.648,124.484,448.074,125.119,449.541,125.713Z" transform="translate(-418.964 -10.988)"/><path class="a" d="M503.6,124.022,562.97,2.543c-1.665-.119-3.408-.119-5.073-.079L499,122.833C500.546,123.229,502.052,123.626,503.6,124.022Z" transform="translate(-451.381 -2.44)"/><path class="a" d="M579.718,142.529,637.346,24.5c-1.308-.793-2.656-1.585-4-2.3L575.2,141.182C576.706,141.618,578.212,142.054,579.718,142.529Z" transform="translate(-496.983 -13.576)"/><path class="a" d="M401.127,140.029,440.881,58.7c-2.537,1.546-4.994,3.091-7.451,4.716L397.6,136.74C398.71,137.889,399.9,138.959,401.127,140.029Z" transform="translate(-390.17 -36.402)"/><path class="a" d="M432.322,129.541,482.023,27.8q-3.389,1.605-6.777,3.329L428.2,127.44C429.825,128.352,431.252,129.065,432.322,129.541Z" transform="translate(-408.642 -17.749)"/><path class="a" d="M379.03,149.391a22.533,22.533,0,0,0,.793,3.607l24.454-50.1c-.515.436-1.11.832-1.625,1.268a69.1,69.1,0,0,0-8.006,7.966l-15.7,32.1A24.752,24.752,0,0,0,379.03,149.391Z" transform="translate(-378.853 -50.057)"/><path class="a" d="M558.757,134.964c.753.159,1.466.357,2.219.515L619.4,15.942c-1.427-.713-2.774-1.308-4.2-1.942L556.3,134.607C557.132,134.726,557.965,134.805,558.757,134.964Z" transform="translate(-485.97 -9.418)"/><path class="a" d="M386.744,144.81h0a.616.616,0,0,0,.238.317c.317.436.674.872,1.03,1.308L421.067,78.7c-2.7,1.863-5.311,3.765-7.927,5.668L385,141.917C385.555,142.907,386.11,143.859,386.744,144.81Z" transform="translate(-382.564 -37.266)"/><path class="a" d="M522.437,126.366,582.047,4.372c-1.546-.357-3.131-.674-4.677-.872L517.8,125.336C519.346,125.692,520.891,126.049,522.437,126.366Z" transform="translate(-462.73 -3.08)"/><path class="a" d="M597.72,150.941,654.674,34.456c-1.268-.912-2.576-1.823-3.845-2.655L593.4,149.276C594.866,149.791,596.293,150.386,597.72,150.941Z" transform="translate(-507.97 -19.371)"/><path class="a" d="M467.06,123.137,523.34,8c-1.982.555-4,1.229-6.1,1.942L462.7,121.552C464.127,122.147,465.593,122.622,467.06,123.137Z" transform="translate(-429.468 -5.796)"/><path class="a" d="M485.179,122.439,543.481,3.1a43,43,0,0,0-4.875.793c-.277.04-.515.119-.753.159L480.7,121.091C482.166,121.567,483.673,122,485.179,122.439Z" transform="translate(-440.334 -2.839)"/><path class="a" d="M541.616,130.228,600.83,9.066c-1.466-.515-2.973-1.07-4.4-1.466L536.9,129.4C538.485,129.713,540.071,129.99,541.616,130.228Z" transform="translate(-474.259 -5.555)"/><path class="a" d="M416.265,134.367,461.488,41.9c-2.338,1.268-4.716,2.616-7.055,3.963L412.5,131.672A33.749,33.749,0,0,0,416.265,134.367Z" transform="translate(-399.164 -26.26)"/><path class="a" d="M789,348.658l45.936-94.012c-.713-2.021-1.466-4-2.219-5.945L784.8,346.676A33.8,33.8,0,0,0,789,348.658Z" transform="translate(-621.528 -101.306)"/><path class="a" d="M806.777,365.81l41.814-85.61c-.634-2.18-1.268-4.36-1.942-6.5L802.1,364.74C803.685,365.176,805.231,365.533,806.777,365.81Z" transform="translate(-631.971 -116.398)"/><path class="a" d="M772.7,331.244l48.948-100.116c-.793-1.9-1.585-3.765-2.378-5.628L768.9,328.549C770.168,329.5,771.437,330.412,772.7,331.244Z" transform="translate(-611.93 -87.302)"/><path class="a" d="M757.567,313.626,808.7,209.071h0c-.832-1.823-1.665-3.527-2.576-5.271L754,310.5C755.189,311.526,756.378,312.6,757.567,313.626Z" transform="translate(-602.936 -74.202)"/><path class="a" d="M826.871,382.19l36.186-74.037c-.436-2.418-.991-4.875-1.585-7.253L821.6,382.547A40.166,40.166,0,0,0,826.871,382.19Z" transform="translate(-643.743 -132.817)"/><path class="a" d="M743.369,295.98l52.674-107.726c-.872-1.7-1.823-3.369-2.7-4.954L740,292.413C741.07,293.642,742.219,294.831,743.369,295.98Z" transform="translate(-594.484 -61.827)"/><path class="a" d="M871.874,416.814a57.457,57.457,0,0,0,7.927-6.7l14.229-29.052a76.786,76.786,0,0,0,1.03-12.564L871.2,417.329A4.327,4.327,0,0,1,871.874,416.814Z" transform="translate(-673.684 -173.625)"/><path class="a" d="M850.241,397.331,878.3,339.9c-.159-2.854-.476-5.747-.911-8.6L843.9,399.748A33.934,33.934,0,0,0,850.241,397.331Z" transform="translate(-657.204 -151.169)"/><path class="a" d="M729.75,278.464,783.415,168.6c-.476-.793-.912-1.585-1.427-2.378-.476-.753-.991-1.506-1.466-2.22L726.5,274.619C727.61,275.927,728.64,277.235,729.75,278.464Z" transform="translate(-586.335 -50.177)"/><path class="a" d="M690.771,228.115l54.457-111.451c-1.07-1.308-2.1-2.656-3.171-3.963L687.6,224.072C688.591,225.42,689.661,226.728,690.771,228.115Z" transform="translate(-562.853 -42.85)"/><path class="a" d="M663.167,197.417l54.576-111.65c-1.11-1.189-2.259-2.418-3.369-3.567L659.6,194.325C660.789,195.276,662.018,196.307,663.167,197.417Z" transform="translate(-545.95 -31.496)"/><path class="a" d="M631.843,171.762,687.37,58.171c-1.189-1.07-2.378-2.1-3.567-3.171l-56,114.464C629.187,170.217,630.5,170.97,631.843,171.762Z" transform="translate(-526.754 -33.376)"/><path class="a" d="M615.162,160.712l56.2-114.979c-1.229-1.03-2.457-1.982-3.726-2.933L611,158.73C612.427,159.364,613.774,160.038,615.162,160.712Z" transform="translate(-518.594 -26.011)"/><path class="a" d="M674.6,208.708c.991,1.07,1.942,2.22,2.933,3.409L731.947,100.7c-1.07-1.268-2.18-2.576-3.25-3.8L674.2,208.312Z" transform="translate(-554.764 -36.997)"/><path class="a" d="M716.61,261.456,770.83,150.52c-.991-1.466-1.982-2.854-3.012-4.32L713.4,257.453C714.43,258.8,715.5,260.109,716.61,261.456Z" transform="translate(-578.427 -39.432)"/><path class="a" d="M703.631,244.573l54.418-111.412c-1.031-1.387-2.021-2.774-3.091-4.162L700.5,240.491C701.53,241.839,702.561,243.186,703.631,244.573Z" transform="translate(-570.64 -48.886)"/><path class="a" d="M647.9,183.93,702.838,71.409c-1.149-1.149-2.3-2.3-3.488-3.409L644.1,181.2C645.368,182.067,646.676,182.979,647.9,183.93Z" transform="translate(-536.593 -41.223)"/><path class="h" d="M864.239,407.873l23.86-48.829c0-2.021-.079-4.082-.238-6.143L859.8,410.33A30.966,30.966,0,0,0,864.239,407.873Z" transform="translate(-666.802 -164.208)"/><path class="h" d="M781,341.243l47.878-97.976c-.476-1.189-.991-2.418-1.466-3.567L778.5,339.816C779.332,340.331,780.125,340.807,781,341.243Z" transform="translate(-617.725 -95.874)"/><path class="h" d="M816.852,375.887l39.872-81.647c-.357-1.427-.713-2.814-1.11-4.241L813.8,375.61A27.273,27.273,0,0,0,816.852,375.887Z" transform="translate(-639.034 -126.238)"/><path class="h" d="M750.68,305.566l52.119-106.7c-.515-1.07-1.11-2.1-1.625-3.171L748.5,303.505Z" transform="translate(-599.615 -69.313)"/><path class="h" d="M723.482,270.454l54.061-110.619c-.634-.912-1.229-1.823-1.863-2.735L721.5,268.036C722.134,268.869,722.808,269.661,723.482,270.454Z" transform="translate(-583.317 -46.011)"/><path class="h" d="M670.819,204.871,725.237,93.5c-.713-.753-1.387-1.546-2.061-2.3L668.6,202.85C669.353,203.523,670.106,204.158,670.819,204.871Z" transform="translate(-550.987 -34.436)"/><path class="h" d="M670.819,204.871,725.237,93.5c-.713-.753-1.387-1.546-2.061-2.3L668.6,202.85C669.353,203.523,670.106,204.158,670.819,204.871Z" transform="translate(-552.968 -45.137)"/><path class="h" d="M670.819,204.871,725.237,93.5c-.713-.753-1.387-1.546-2.061-2.3L668.6,202.85C669.353,203.523,670.106,204.158,670.819,204.871Z" transform="translate(-554.95 -57.028)"/><path class="h" d="M697.542,236.628,752,125.137c-.674-.832-1.308-1.665-1.942-2.537L695.6,234.091C696.234,234.923,696.868,235.756,697.542,236.628Z" transform="translate(-567.682 -41.447)"/><path class="h" d="M640.418,178.237l55.29-113.116c-.753-.713-1.466-1.387-2.219-2.021L638,176.652C638.793,177.167,639.625,177.722,640.418,178.237Z" transform="translate(-535.686 -39.058)"/><path class="h" d="M606.956,156.195,663.593,40.3c-.793-.555-1.546-1.149-2.338-1.7L604.3,155.045C605.172,155.4,606.084,155.8,606.956,156.195Z" transform="translate(-514.946 -24.268)"/><path class="h" d="M532.433,128.249l59.491-121.8c-.912-.277-1.9-.515-2.814-.753L529.5,127.694C530.491,127.853,531.442,128.09,532.433,128.249Z" transform="translate(-469.792 -4.408)"/><path class="h" d="M570.914,139.19,629.057,20.208c-.832-.436-1.665-.872-2.576-1.308L568.1,138.437C569.051,138.675,570,138.912,570.914,139.19Z" transform="translate(-493.093 -12.376)"/><path class="h" d="M493.149,122.433c.515.119,1.11.317,1.625.436L553.592,2.5a31.418,31.418,0,0,0-3.329.277L492,122.116C492.4,122.235,492.753,122.314,493.149,122.433Z" transform="translate(-447.155 -2.476)"/><path class="h" d="M907.029,400.2,892.8,429.252C900.806,421.008,905.206,411.02,907.029,400.2Z" transform="translate(-686.723 -192.761)"/><path class="h" d="M797.874,358.764l44.47-91.079c-.436-1.268-.832-2.616-1.308-3.884L795.1,357.773C796.091,358.129,797,358.486,797.874,358.764Z" transform="translate(-627.746 -110.422)"/><path class="h" d="M838.467,392.484l33.451-68.409c-.238-1.625-.515-3.21-.832-4.875L834.9,393.237C836.089,393.039,837.278,392.761,838.467,392.484Z" transform="translate(-651.771 -143.864)"/><path class="h" d="M765.3,323.518l50.375-103.049c-.515-1.149-1.031-2.259-1.546-3.369L763,321.655C763.753,322.329,764.546,322.884,765.3,323.518Z" transform="translate(-608.368 -82.231)"/><path class="h" d="M736.8,287.765l53.308-109.153c-.555-1.03-1.149-2.021-1.7-3.012L734.7,285.466C735.413,286.259,736.087,287.012,736.8,287.765Z" transform="translate(-591.285 -57.179)"/><path class="h" d="M684.582,220.33,739,108.918c-.674-.793-1.308-1.585-2.021-2.418L682.6,217.912C683.234,218.7,683.908,219.5,684.582,220.33Z" transform="translate(-561.023 -42.163)"/><path class="h" d="M684.582,220.33,739,108.918c-.674-.793-1.308-1.585-2.021-2.418L682.6,217.912C683.234,218.7,683.908,219.5,684.582,220.33Z" transform="translate(-557.853 -33.047)"/><path class="h" d="M710.382,253.348,764.76,142.056c-.634-.872-1.268-1.784-1.9-2.655L708.4,250.851C709.074,251.684,709.747,252.516,710.382,253.348Z" transform="translate(-576.598 -49.798)"/><path class="h" d="M710.382,253.348,764.76,142.056c-.634-.872-1.268-1.784-1.9-2.655L708.4,250.851C709.074,251.684,709.747,252.516,710.382,253.348Z" transform="translate(-573.427 -39.097)"/><path class="h" d="M656,191.005,710.773,78.88c-.713-.753-1.427-1.466-2.1-2.18L653.7,189.182C654.493,189.776,655.246,190.371,656,191.005Z" transform="translate(-545.163 -48.457)"/><path class="h" d="M622.412,165.694c.515.277,1.07.555,1.585.872L679.921,52.1c-.753-.674-1.506-1.268-2.259-1.9L621.5,165.179C621.817,165.377,622.094,165.5,622.412,165.694Z" transform="translate(-525.329 -31.271)"/><path class="h" d="M551.773,132.977,610.709,12.37c-.872-.4-1.784-.713-2.7-1.07L548.8,132.462C549.791,132.66,550.782,132.779,551.773,132.977Z" transform="translate(-481.443 -7.789)"/><path class="h" d="M589.3,146.982l57.39-117.436c-.793-.515-1.625-1.07-2.418-1.546L586.6,146.031C587.472,146.308,588.423,146.665,589.3,146.982Z" transform="translate(-504.261 -17.87)"/><path class="h" d="M513.393,124.792,572.924,2.957c-1.03-.119-2.021-.277-3.052-.357L510.5,124.079C511.451,124.356,512.442,124.594,513.393,124.792Z" transform="translate(-458.323 -2.537)"/><path class="h" d="M476.414,122.6l57.153-117c-1.189.317-2.418.634-3.686.991L473.6,121.728C474.551,122.006,475.5,122.323,476.414,122.6Z" transform="translate(-436.048 -4.348)"/><path class="h" d="M440.621,127.536h0c.159.079.4.159.634.277L492.384,23.1c-1.387.555-2.735,1.189-4.122,1.863L438.6,126.7C439.868,127.259,440.621,127.536,440.621,127.536Z" transform="translate(-414.92 -14.912)"/><path class="h" d="M458.655,124.51,513.192,12.9c-1.268.436-2.616.912-3.884,1.427L456,123.479C456.872,123.876,457.744,124.153,458.655,124.51Z" transform="translate(-425.423 -8.754)"/><path class="h" d="M424.457,132.411,471.5,36.1l-4.28,2.259L422,130.865C422.872,131.46,423.665,131.975,424.457,132.411Z" transform="translate(-404.899 -22.759)"/><path class="h" d="M408.72,137.629c.04.04.079.04.119.079L450.771,51.9c-1.506.872-3.012,1.784-4.518,2.7L406.5,135.925C407.213,136.479,407.966,137.074,408.72,137.629Z" transform="translate(-395.542 -32.297)"/><path class="h" d="M394.521,143.923,430.351,70.6c-1.585,1.07-3.171,2.1-4.756,3.21L392.5,141.585C393.094,142.378,393.808,143.131,394.521,143.923Z" transform="translate(-387.091 -43.585)"/><path class="h" d="M379.2,178.941,405.755,126.3A101.673,101.673,0,0,0,385.1,160.679,50.186,50.186,0,0,0,379.2,178.941Z" transform="translate(-376.684 -84.994)"/></g></g><path class="j" d="M2370.765,104.96l1347.72,848.981L3676.5,978.393,2327.953,130.113Z" transform="translate(-1937 135)"/><path class="k" d="M3636.187,169.4,2986.3,545.516l41.374,24.83,650.932-375.264Z" transform="translate(-2727 301)"/><path class="l" d="M2362.869,420.263V628.787l-181.129-105.4V315.672Z" transform="translate(-1857 55)"/><path class="m" d="M484.14,519.865,303.683,623.155,484.741,728.787Z" transform="translate(21 -45)"/><path class="n" d="M2643.613,638.3l-151.931,80.95,208.713,117.259L2862.57,742.5Z" transform="translate(-2207.676 -159.831)"/><path class="o" d="M2181.895,420.193,2181.74,628.9,2363.05,526.272v-210.6Z" transform="translate(-1676 55)"/><path class="p" d="M2181.743,523.945l181.213-104.018" transform="translate(-1857 55)"/><g transform="translate(184.198 95.413)"><path class="q" d="M2388.3,424.837l100.052-61.25v20.991L2388.3,445.9Z" transform="translate(-2027 5)"/><path class="q" d="M2388.3,424.837l100.052-61.25v20.991L2388.3,445.9Z" transform="translate(-2027 60.525)"/><path class="q" d="M2388.3,424.8l100.052-61.35v21.091L2388.3,445.859Z" transform="translate(-2012.502 23.955)"/></g><g class="r" transform="translate(174 65)"><g transform="translate(183.9 392.584)"><path class="b" d="M203.6,49.9H164.3a3.009,3.009,0,0,0-3,3v1.9a3.009,3.009,0,0,0,3,3h13.6a1.752,1.752,0,0,1,1.7,1.7v45.8a3.329,3.329,0,0,0,3.3,3.3H185a3.329,3.329,0,0,0,3.3-3.3h0V59.4a1.752,1.752,0,0,1,1.7-1.7h13.7a3.009,3.009,0,0,0,3-3V52.8A3.08,3.08,0,0,0,203.6,49.9Z"/><path class="b" d="M328.2,53.2a3.329,3.329,0,0,0-3.3-3.3h-2.2a3.329,3.329,0,0,0-3.3,3.3v33c0,8.3-5.4,14.7-14.1,14.7-8.5,0-13.9-6.5-13.9-14.9V53.2a3.329,3.329,0,0,0-3.3-3.3H286a3.329,3.329,0,0,0-3.3,3.3V86.7c.1,12.7,9.6,22.7,22.8,22.7s22.9-10,22.9-22.7Z"/><path class="b" d="M438.7,100.7H419a1.685,1.685,0,0,1-1.7-1.7V53.2a3.329,3.329,0,0,0-3.3-3.3h-2.2a3.329,3.329,0,0,0-3.3,3.3v52.2a3.222,3.222,0,0,0,3.2,3.2h26.8a2.9,2.9,0,0,0,2.9-2.9v-1.9A2.693,2.693,0,0,0,438.7,100.7Z"/><path class="b" d="M252.4,84.9h0c7.3-3,12.4-9.4,12.4-17.1a18.035,18.035,0,0,0-18.3-17.9h-21a3.329,3.329,0,0,0-3.3,3.3v1.6h0v50.4a3.329,3.329,0,0,0,3.3,3.3h2a3.329,3.329,0,0,0,3.3-3.3V87.3a1.685,1.685,0,0,1,1.7-1.7h10.4a1.05,1.05,0,0,1,.9.5l10.8,20.8a3.394,3.394,0,0,0,4.5,1.3l1.8-1a3.3,3.3,0,0,0,1.3-4.5Zm-6.5-6.5H232.7a1.735,1.735,0,0,1-1.7-1.6v-16h0v-1a1.666,1.666,0,0,1,1.6-1.7h13c5.5,0,10.5,4.5,10.4,10.1a10.289,10.289,0,0,1-10.1,10.2Z"/><path class="b" d="M384.6,100.7H361.3a1.685,1.685,0,0,1-1.7-1.7V97.7h0V84.4a1.685,1.685,0,0,1,1.7-1.7h19.3a3.009,3.009,0,0,0,3-3V77.8a3.009,3.009,0,0,0-3-3H361.3a1.685,1.685,0,0,1-1.7-1.7V60.5h0v-1a1.685,1.685,0,0,1,1.7-1.7h23.3a3.009,3.009,0,0,0,3-3V52.9a3.009,3.009,0,0,0-3-3H354.2a3.159,3.159,0,0,0-3.2,3.2v52.2a3.222,3.222,0,0,0,3.2,3.2h30.4a2.9,2.9,0,0,0,2.9-2.9v-1.9A2.925,2.925,0,0,0,384.6,100.7Z"/><path class="b" d="M606.7,100.6H583.4a1.752,1.752,0,0,1-1.7-1.7V97.6h0V84.3a1.752,1.752,0,0,1,1.7-1.7h19.3a3.009,3.009,0,0,0,3-3V77.7a3.009,3.009,0,0,0-3-3H583.4a1.685,1.685,0,0,1-1.7-1.7V60.4h0v-1a1.685,1.685,0,0,1,1.7-1.7h23.3a3.009,3.009,0,0,0,3-3V52.8a3.009,3.009,0,0,0-3-3H576.3a3.159,3.159,0,0,0-3.2,3.2v52.2a3.222,3.222,0,0,0,3.2,3.2h30.4a2.9,2.9,0,0,0,2.9-2.9v-1.9A2.925,2.925,0,0,0,606.7,100.6Z"/><path class="b" d="M506.7,103.4,482.5,50a1.945,1.945,0,0,0-1.4-.9h-.8a1.945,1.945,0,0,0-1.4.9l-24.3,53.4a3.12,3.12,0,0,0,1.5,4.1l1.8.8a3.12,3.12,0,0,0,4.1-1.5l4.8-10.6a.864.864,0,0,1,.6-.3h26.3a1.02,1.02,0,0,1,.8.5l4.8,10.5a3.12,3.12,0,0,0,4.1,1.5l1.8-.8A3.271,3.271,0,0,0,506.7,103.4Zm-17-14.8H471.4a.9.9,0,0,1-.9-.9.367.367,0,0,1,.1-.3l9.6-21.5c.1-.1.2-.2.3-.2h0c.1,0,.2.1.3.2h0l9.7,21.5a.841.841,0,0,1-.4,1.1.756.756,0,0,1-.4.1Z"/><path class="b" d="M555.7,52l-2-1.5a3.121,3.121,0,0,0-4.5.7L534.6,71.4a.605.605,0,0,1-.8.1.1.1,0,0,1-.1-.1C531.6,68.5,519,51.2,519,51.2a3.313,3.313,0,0,0-4.5-.7l-2,1.5c-1.3,1.1-1.1,2.8-.2,4.1l17.4,24.2v24.9a3.329,3.329,0,0,0,3.3,3.3h2.1a3.329,3.329,0,0,0,3.3-3.3v-25L556,56.1A2.965,2.965,0,0,0,555.7,52Z"/><path class="b" d="M657.6,84.8c-.1-.1,0-.1,0,0h0c7.3-3,12.4-9.4,12.4-17.1a18.012,18.012,0,0,0-18.2-17.9H630.7a3.329,3.329,0,0,0-3.3,3.3v52a3.329,3.329,0,0,0,3.3,3.3h2a3.329,3.329,0,0,0,3.3-3.3v-18a1.685,1.685,0,0,1,1.7-1.7h10.4a1.05,1.05,0,0,1,.9.5l10.8,20.8a3.394,3.394,0,0,0,4.5,1.3l1.8-1a3.3,3.3,0,0,0,1.3-4.5ZM651,78.3H637.8a1.735,1.735,0,0,1-1.7-1.6v-17a1.685,1.685,0,0,1,1.7-1.7h13c5.5,0,10.5,4.5,10.4,10.1A10.375,10.375,0,0,1,651,78.3Z"/><g class="x" transform="matrix(1, 0, 0, 1, -357.9, -457.58)"><path class="s" d="M15.7,112l50.4,28.7c4.3,2.6,6.2.8,8,0L127.6,110c1.9-1.2,3.2-2.2,3.2-4.4a4.5,4.5,0,0,0-2.6-3.8l-14.4-9.6,13.7-7.9c2.2-1.1,4.6-3.6,4.6-6.7V56.3c0-5.5-3.1-7.2-4.7-8C127.3,48.2,74.9,18,74.9,18a8.407,8.407,0,0,0-9.8,0L12.5,48.6c-2.4,1.6-3.1,3.3-3.1,5.1,0,2.6,2.7,4.6,3.1,4.9l13.7,8.1L11.7,75.5a5.254,5.254,0,0,0-2.4,4h0c-.2,1.2-.2,20.6-.2,20.6C9.1,105.2,9.6,108.5,15.7,112Zm105.6-6L70.1,134.7,20.6,106.8l15.5-8.9,32.1,18.4a3.834,3.834,0,0,0,3.6.1l34.7-20.1Zm4.3-30.6-13.8-8.5,13.8-8.2ZM73.9,25.9,121,53.5,105.5,63,73.8,43.7ZM70,49.7,98.6,67.1,70,83.6h0L40.7,66.7,70,49.7Zm-51.8,4L66.3,25.9V43.7L32.9,62.6ZM33.4,71,68.2,91a4.026,4.026,0,0,0,3.7,0l33.4-20,15.1,9.2L70,108.9,18.8,79.4ZM15.9,86.1l13.5,7.7-13.5,7.8Z" transform="translate(357.9 457.58)"/></g></g></g><path class="t" d="M3676.258,122.886l-693.08,399.727,42.681,24.524,693.993-400.42Z" transform="translate(-2928 -64)"/><path class="u" d="M2233.386,34.843,3808.566,968.78l-41.922,23.787L2191.256,59.5Z" transform="translate(-2094 521)"/><path class="v" d="M2543.184,315.779l-181.3,104.45L2180.8,315.673,2362.836,206.8Z" transform="translate(-1856 55)"/><path class="w" d="M2346.953,488.572c-6.458-6.276-31.567-10.893-24.1-49.3-18.132-.848-27.055,10.781-22.959,25.955-7.835-1.532-11.237-10.274-11.237-10.274s-17.491,10.769-4.855,25.422c-4.53-.023-10.05-3.309-13.588-7.875-3.437,7.726-7.683,14.684,13.588,26.972-13.042-.973-33.872-5.088-51.584-15.651,29.556,28.975,79.793,73.151,176.924,29,6.5,1.791,21.519,1,23.546-2.324-11.559-2.114-16.709-6.169-16.709-6.169s19.878,4.609,27.624,0c-5.959-1.977-24.567-6.972-24.567-6.972s-3.777-32.664-49.748-21.908C2359.015,478.284,2349.565,485.615,2346.953,488.572Z" transform="translate(-1831.879 -125.343)"/></g></svg>